<svg xmlns="http://www.w3.org/2000/svg" aria-hidden="true" style="position:absolute;width:0;height:0;overflow:hidden">
  <defs>
    <symbol id="icon-antenna" viewBox="0 0 32 32">
      <path fill="#2e2f42" d="m30.773 22.098-8.443-8.505.937-4.615c.242.094.499.143.759.145h.032a2.16 2.16 0 1 0-2.029-1.42l-.005-.015-4.96.605L8.973.16A.53.53 0 0 0 8.597 0a.536.536 0 0 0-.373.155L6.711 1.659a.53.53 0 0 0 0 .754l.814.825C6.382 5.3 5.709 7.76 5.709 10.377c0 4.106 1.656 7.825 4.336 10.526l-.001-.001a.506.506 0 0 0 .146.098 2.986 2.986 0 0 0-.052.546v6.188h-6.4A2.669 2.669 0 0 0 1.071 30.4v1.067c0 .295.239.533.534.533h24.534a.535.535 0 0 0 .534-.534v-1.067a2.67 2.67 0 0 0-2.667-2.666h-6.4v-2.742a14.784 14.784 0 0 0 10.166-1.502l-.077.039.819.823a.534.534 0 0 0 .377.16.532.532 0 0 0 .373-.155l1.512-1.505a.535.535 0 0 0 0-.754zM23.28 6.233a1.067 1.067 0 1 1 .752 1.822h-.003a1.066 1.066 0 0 1-.746-1.822h-.002zm-1.256 3.505-.599 2.945-1.175-1.182 1.774-1.764zm-.605-.902-1.92 1.909-1.485-1.493 3.405-.415zM24.004 28.8a1.6 1.6 0 0 1 1.6 1.6v.534H2.138V30.4a1.6 1.6 0 0 1 1.6-1.6h20.267zm-7.466-2.134v1.067h-5.334v-1.067h5.334zM11.204 25.6v-4.053c0-1.294 1.197-2.346 2.666-2.346s2.667 1.053 2.667 2.346V25.6h-5.334zm6.4-1.696v-2.357c0-1.882-1.675-3.413-3.733-3.413h-.059c-1.353 0-2.54.707-3.213 1.771l-.009.016a13.816 13.816 0 0 1-3.811-9.549c0-2.314.567-4.496 1.569-6.414l-.036.077 18.602 18.709c-1.823.947-3.98 1.502-6.266 1.502-1.079 0-2.128-.124-3.136-.357l.093.018zm11.289-.683L7.836 2.041l.755-.752 7.935 7.98c.003 0 .006.007.009.009l13.114 13.191-.757.752z" style="fill:var(--color1, #2e2f42)"/>
      <path fill="#4d5ae5" d="M13.876 20.267h-.007a1.6 1.6 0 0 0-.003 3.2h.007a1.6 1.6 0 0 0 .003-3.2zm.373 1.978a.534.534 0 0 1-.91-.379v-.002a.533.533 0 0 1 .53-.53.535.535 0 0 1 .374.912h.005z" style="fill:var(--color2, #4d5ae5)"/>
    </symbol>
    <symbol id="icon-astronaut" viewBox="0 0 32 32">
      <path fill="#4d5ae5" d="M31.974 4.524a.535.535 0 0 0-.427-.362h-.003l-1.911-.278-.855-1.731c-.179-.365-.776-.365-.956 0l-.855 1.731-1.91.278a.534.534 0 0 0-.296.909l1.383 1.348-.326 1.903a.533.533 0 0 0 .774.561l1.709-.899 1.709.899a.534.534 0 0 0 .773-.565v.003l-.326-1.903L31.84 5.07a.535.535 0 0 0 .134-.55l.001.004zm-2.463 1.327a.534.534 0 0 0-.153.472l.191 1.114-1-.526a.524.524 0 0 0-.499.001l.003-.001-1 .526.191-1.114a.53.53 0 0 0-.153-.472l-.81-.79 1.119-.162a.533.533 0 0 0 .401-.292l.5-1.013.501 1.013a.535.535 0 0 0 .402.292l1.119.162-.809.79zm-3.377 14.671h-1.067v1.067h1.067v-1.067zm0 2.133h-1.067v1.067h1.067v-1.067z" style="fill:var(--color2, #4d5ae5)"/>
      <path fill="#4d5ae5" d="M27.2 21.589h-1.067v1.067H27.2v-1.067zm-2.133 0H24v1.067h1.067v-1.067zm-2.667 4.8h-1.067v1.067H22.4v-1.067zm0 2.134h-1.067v1.067H22.4v-1.067zm1.067-1.067H22.4v1.067h1.067v-1.067zM21.334 27.456h-1.067v1.067h1.067v-1.067zM16 24.256h-1.066v1.067H16v-1.067zm0 2.133h-1.066v1.067H16v-1.067zm1.067-1.066H16v1.067h1.067v-1.067zm-2.133 0h-1.067v1.067h1.067v-1.067zM5.867 6.122H4.801v1.066h1.066V6.122zm0 2.133H4.801v1.067h1.066V8.256zm1.066-1.066H5.867v1.067h1.066V7.189zm-2.133 0H3.733v1.067H4.8V7.189z" style="fill:var(--color2, #4d5ae5)"/>
      <path fill="#2e2f42" d="M24.715 14.159a1.778 1.778 0 0 0-1.179-.704l-.009-.001a1.764 1.764 0 0 0-1.344.356l.004-.003-1.252.96-1.898 1.417-1.358-.541c2.421-1.086 4.114-3.508 4.114-6.32 0-3.823-3.122-6.933-6.961-6.933S7.87 5.5 7.87 9.323a6.86 6.86 0 0 0 1.12 3.758l-2.769-.024c-.008 0-.015.005-.024.005a.52.52 0 0 0-.155.03c-.013.005-.026.008-.038.014-.006.002-.013.003-.019.007L2.751 14.71l-1.893.911a.429.429 0 0 0-.064.036l.001-.001a1.78 1.78 0 0 0-.593 2.304l-.005-.01c.22.429.595.745 1.056.89a1.772 1.772 0 0 0 1.388-.133l-.009.005 1.388-.738 2.264-1.169 1.357-.008-5.442 5.415-.002.002-1.339 1.333c-.303.299-.49.714-.49 1.173v.005a1.668 1.668 0 0 0 1.669 1.663 1.67 1.67 0 0 0 1.18-.485l1.314-1.308 1.74-1.3.901.897L4.07 27.28c-.303.299-.49.714-.49 1.173v.005a1.669 1.669 0 0 0 1.67 1.664c.428 0 .855-.162 1.18-.485l3.482-3.466.001-.002 1.01-1-.004-.003c.007-.006.015-.009.022-.015l5.166-5.658 3.471.494a.522.522 0 0 0 .266-.035l-.004.001c.017-.006.033-.015.05-.023.019-.009.039-.015.057-.027l3.213-2.134c.012-.008.018-.02.029-.029.012-.01.029-.014.04-.025l1.272-1.192a1.777 1.777 0 0 0 .209-2.366l.003.005zM2.13 17.77a.714.714 0 0 1-.558.052.717.717 0 0 1-.215-1.258l.002-.001 1.314-.632.316.925.133.388-.993.527zm3.498-1.827-1.548.8-.255-.747-.183-.537 2.026-1-.04 1.483zm15.099-6.621a5.79 5.79 0 0 1-.599 2.559l-4.181-1.899a1.86 1.86 0 0 0-.782-1.384l-.006-.004 1.464-4.86c2.378.755 4.105 2.974 4.105 5.587zm-11.789 0c0-3.235 2.644-5.867 5.894-5.867.253 0 .5.022.745.053l-1.432 4.753c-.019 0-.037-.005-.057-.005h-.001a1.872 1.872 0 0 0-1.872 1.866 1.873 1.873 0 0 0 1.872 1.867h.001c.694 0 1.294-.383 1.618-.944l3.863 1.755a5.891 5.891 0 0 1-4.736 2.39c-3.25 0-5.895-2.633-5.895-5.867zm5.957.8c0 .441-.362.8-.806.8h-.002a.804.804 0 0 1-.804-.8c0-.441.361-.8.806-.8s.806.359.806.8zM2.465 25.146a.609.609 0 0 1-.855 0 .591.591 0 0 1 0-.844l.962-.959.851.848-.958.955zm3.213 3.734a.606.606 0 0 1-.855.001.591.591 0 0 1 0-.844l.963-.959.851.848-.96.955zm3.483-3.469-.002.001-1.765 1.76-.851-.848 1.763-1.756.002-.001c.04-.04.065-.088.09-.135.007-.014.02-.026.026-.04.017-.041.019-.085.025-.129.004-.024.014-.047.014-.073 0-.035-.012-.07-.02-.105-.007-.032-.007-.065-.018-.096a.511.511 0 0 0-.091-.137c-.01-.012-.014-.027-.025-.038h-.001l-.001-.002-1.607-1.6c-.017-.017-.039-.024-.058-.038a.491.491 0 0 0-.084-.056l-.003-.001a.477.477 0 0 0-.09-.032l-.003-.001a.502.502 0 0 0-.101-.02h-.022a.49.49 0 0 0-.077.006h.003a.59.59 0 0 0-.108.021l.004-.001a.502.502 0 0 0-.096.046l.002-.001c-.02.011-.043.015-.061.029l-1.774 1.324-.901-.897 2.399-2.386 4.36 4.289-.927.919zm6.818-7.017c-.015-.002-.03.004-.045.003l-.026-.001a.562.562 0 0 0-.092.008h.003a.5.5 0 0 0-.187.069l.002-.001a.554.554 0 0 0-.083.061c-.013.011-.028.017-.04.029l-4.698 5.146-4.328-4.257 2.833-2.818a.535.535 0 0 0-.378-.911h-.001l-2.219.013.027-1.607 3.104.027a6.928 6.928 0 0 0 4.978 2.101h.003c.438 0 .864-.045 1.279-.122.04.032.079.064.13.085l2.409.96.152.758.178.885-3.003-.427zm4.041.179-.314-1.558 1.447-1.08.947 1.257-2.08 1.381zm3.754-2.831-.838.785-.931-1.236.831-.637a.73.73 0 0 1 .543-.143.716.716 0 0 1 .395 1.231z" style="fill:var(--color1, #2e2f42)"/>
      <path fill="#2e2f42" d="m13.602 18.544-2.143-2.134a.53.53 0 0 0-.752 0l-2.143 2.134a.533.533 0 0 0 0 .756l2.143 2.133a.53.53 0 0 0 .752 0l2.143-2.133a.532.532 0 0 0 0-.756zm-2.519 1.759-1.386-1.381 1.386-1.381 1.387 1.381-1.387 1.381zm6.081-15.232-.258 1.035c.071.018 1.738.452 1.738 2.149h1.067c0-2.017-1.666-2.966-2.546-3.185zm2.547 4.251h-1.067v1.067h1.067V9.322z" style="fill:var(--color1, #2e2f42)"/>
    </symbol>
    <symbol id="icon-clock" viewBox="0 0 32 32">
      <path fill="#2e2f42" d="M31.297 15.301C31.295 6.849 24.442-.002 15.989 0S.686 6.855.688 15.308C.69 22.096 5.11 27.851 11.229 29.853l.108.031a.67.67 0 0 0 .529-.064.642.642 0 0 0 .284-.357l3.865-12.25a1.913 1.913 0 1 0-.851-3.63l.011-.005-5.106-5.107a.637.637 0 1 0-.902.902l5.104 5.109a1.873 1.873 0 0 0 .532 2.306l.004.003-3.683 11.673C3.846 25.783.119 17.71 2.801 10.432 5.482 3.155 13.556-.573 20.833 2.109s11.004 10.755 8.323 18.032c-1.345 3.581-4.004 6.406-7.374 7.938l-.088.036-.398-1.875a.638.638 0 0 0-1.049-.343l.001-.001-3.837 3.425a.639.639 0 0 0 .227 1.084l.005.001 4.899 1.564a.637.637 0 0 0 .818-.743l.001.004-.391-1.839c5.528-2.374 9.329-7.772 9.329-14.057v-.034.002zm-15.305-.637a.638.638 0 0 1 0 1.276.638.638 0 0 1 0-1.276zm2.101 14.863 2.184-1.948.603 2.84-2.787-.892z" style="fill:var(--color1, #2e2f42)"/>
      <path fill="#4d5ae5" d="M15.354 3.185V4.46a.638.638 0 1 0 1.275 0V3.185a.639.639 0 0 0-1.274-.002v.001zM3.876 14.664a.637.637 0 1 0 .001 1.274h1.275a.638.638 0 1 0 0-1.274H3.877zm24.232 1.275a.637.637 0 1 0 0-1.274h-1.275a.639.639 0 0 0-.002 1.274H28.107z" style="fill:var(--color2, #4d5ae5)"/>
    </symbol>
    <symbol id="icon-diagram" viewBox="0 0 32 32">
      <path fill="#4d5ae5" d="M14.925 14.965h1.066v4.797h-1.066v-4.797zm4.265 2.132h1.066v2.665H19.19v-2.665zm-8.529 1.599h1.066v1.066h-1.066v-1.066zm-3.198-.533h1.066v1.599H7.463v-1.599z" style="fill:var(--color2, #4d5ae5)"/>
      <path fill="#2e2f42" d="M1.599 28.291h25.587a1.6 1.6 0 0 0 1.599-1.599v-2.133a1.6 1.6 0 0 0-1.599-1.599h-.534V9.667l3.028-2.868a1.608 1.608 0 1 0-.742-.753l-.004-.01-2.282 2.163v-1.23a1.6 1.6 0 0 0-1.599-1.599H3.73a1.6 1.6 0 0 0-1.599 1.599V22.961h-.533A1.6 1.6 0 0 0-.001 24.56v2.134a1.6 1.6 0 0 0 1.599 1.599zM30.384 4.837a.533.533 0 0 1 0 1.066.533.533 0 0 1 0-1.066zM3.199 6.969c0-.295.239-.534.533-.534h21.322c.294 0 .533.239.533.534v2.238l-1.066 1.013V8.035a.532.532 0 0 0-.533-.533H4.798a.533.533 0 0 0-.533.533v13.326c0 .295.239.534.533.534h19.19a.534.534 0 0 0 .533-.534v-9.674l1.066-1.01V22.96H3.199V6.969zm4.797 6.93h-.005a1.6 1.6 0 1 0 1.112 2.748l1.853.93a.532.532 0 0 0 .636-.123l3.938-4.431 3.872 2.902a.532.532 0 0 0 .686-.04l3.365-3.188v8.131H5.33V8.568h18.124v2.66L19.682 14.8l-3.905-2.928a.531.531 0 0 0-.717.072v.001l-3.993 4.493-1.493-.746c.011-.064.018-.129.021-.194a1.6 1.6 0 0 0-1.599-1.599zm.533 1.599a.533.533 0 0 1-1.066 0 .533.533 0 0 1 1.066 0zm3.198 8.528h5.331v.533a.533.533 0 0 1-.533.533h-4.264a.533.533 0 0 1-.533-.533v-.533zm-10.661.534c0-.294.239-.533.533-.533h9.062v.533a1.6 1.6 0 0 0 1.599 1.599h4.265a1.6 1.6 0 0 0 1.599-1.599v-.534h9.061c.295 0 .534.238.534.533v2.133a.534.534 0 0 1-.534.533H1.599a.533.533 0 0 1-.533-.533v-2.133z" style="fill:var(--color1, #2e2f42)"/>
    </symbol>
    <symbol id="icon-facebook" viewBox="0 0 32 32">
      <path d="M21.33 5.314h2.92V.226A36.551 36.551 0 0 0 20.125 0h-.138.007C15.782 0 12.9 2.65 12.9 7.52V12H8.25v5.688h4.648V32h5.698V17.69h4.46l.708-5.69h-5.17V8.08c.002-1.644.444-2.768 2.736-2.768z"/>
    </symbol>
    <symbol id="icon-instagram" viewBox="0 0 32 32">
      <path d="M31.968 9.408c-.074-1.7-.35-2.87-.744-3.882a7.844 7.844 0 0 0-1.849-2.839l-.001-.001A7.898 7.898 0 0 0 26.596.862l-.054-.018c-1.02-.394-2.18-.67-3.88-.744C20.946.02 20.4 0 16.06 0c-4.346 0-4.89.02-6.596.094-1.7.074-2.868.35-3.88.744a7.844 7.844 0 0 0-2.839 1.849l-.001.001A7.89 7.89 0 0 0 .918 5.466L.9 5.52C.506 6.54.232 7.7.156 9.4c-.08 1.714-.1 2.26-.1 6.602 0 4.346.02 4.89.094 6.596.074 1.7.35 2.87.744 3.882a7.886 7.886 0 0 0 1.85 2.838c.8.812 1.77 1.444 2.832 1.844 1.02.394 2.18.67 3.882.744 1.706.076 2.25.094 6.596.094 4.344 0 4.888-.02 6.594-.094 1.7-.074 2.87-.35 3.882-.744a8.233 8.233 0 0 0 4.663-4.627l.019-.055c.394-1.02.67-2.18.744-3.882.076-1.706.094-2.25.094-6.596 0-4.344-.006-4.888-.08-6.594zm-2.88 13.064c-.07 1.564-.332 2.408-.552 2.97a5.34 5.34 0 0 1-3.002 3.027l-.036.013c-.562.218-1.412.48-2.968.548-1.688.076-2.194.094-6.464.094s-4.782-.02-6.464-.094c-1.564-.068-2.408-.33-2.97-.55a4.947 4.947 0 0 1-1.837-1.193l-.001-.001a5.001 5.001 0 0 1-1.183-1.804l-.011-.034c-.22-.562-.48-1.412-.55-2.968-.074-1.688-.094-2.196-.094-6.464 0-4.27.02-4.782.094-6.464.07-1.564.332-2.408.55-2.97a4.888 4.888 0 0 1 1.2-1.838A4.96 4.96 0 0 1 6.64 3.55c.56-.22 1.412-.48 2.968-.55 1.688-.074 2.194-.094 6.464-.094 4.276 0 4.78.02 6.464.094 1.562.07 2.406.332 2.968.55a4.929 4.929 0 0 1 1.84 1.194 4.98 4.98 0 0 1 1.192 1.84c.22.56.482 1.41.55 2.968.076 1.688.094 2.194.094 6.464s-.018 4.77-.092 6.456z"/>
      <path d="M16.06 7.782a8.222 8.222 0 0 0-.01 16.44h.009a8.222 8.222 0 0 0 .01-16.44h-.009zm0 13.554a5.334 5.334 0 1 1 0-10.668 5.334 5.334 0 1 1 0 10.668zM26.524 7.458a1.92 1.92 0 0 1-3.84 0 1.92 1.92 0 0 1 3.84 0z"/>
    </symbol>
    <symbol id="icon-linkedin" viewBox="0 0 32 32">
      <path d="M31.992 32H32V20.26c0-5.74-1.236-10.164-7.948-10.164-3.226 0-5.392 1.772-6.276 3.45h-.094v-2.912H11.32V32h6.628V21.42c0-2.784.528-5.476 3.976-5.476 3.4 0 3.45 3.178 3.45 5.656V32h6.62zM.528 10.636h6.634V32H.528V10.636zM3.842 0C1.722 0 .002 1.72.002 3.84s1.72 3.88 3.84 3.88c2.122 0 3.844-1.76 3.844-3.88S5.96 0 3.84 0z"/>
    </symbol>
    <symbol id="icon-Logo-2" viewBox="0 0 59 32">
      <path d="M28.637 3.391c.131 0 .273.012.414.024l.042.003.042.002c.707.051 1.398.16 1.981.303V2.087a12.089 12.089 0 0 0-2.089-.333 18.07 18.07 0 0 0-.845-.041h-.247a16.615 16.615 0 0 0-4.189.541l-.118.026a16.601 16.601 0 0 0-4.331 1.784v16.227l-.093.047a18.065 18.065 0 0 1 4.333-1.7l-.129.029a18.56 18.56 0 0 1 3.688-.575h.048c.201-.01.402-.016.609-.017v-1.662h-.013c-1.639.022-3.23.244-4.612.614-.559.145-1.1.302-1.607.477l-.578.197V5.048l.247-.119-.096.042A16.099 16.099 0 0 1 27.2 3.396h-.001l.027-.001.026.001c.23-.011.461-.017.688-.017h.26c.12.003.24.006.36.013h.078zm2.879 1.672c.363.028.739.041 1.119.041a17.996 17.996 0 0 0 4.533-.594l-.125.028c1.61-.411 3.02-.977 4.331-1.7l-.094.047v15.937a16.634 16.634 0 0 1-4.331 1.783l-.118.026c-1.257.337-2.7.533-4.189.539h-.107c-1.093 0-2.153-.137-3.166-.394l.089.019V4.754c.246.057.499.109.756.153.422.071.867.123 1.301.155zm8.111.124-.578.194a25.05 25.05 0 0 1-1.607.481c-1.44.385-3.094.61-4.8.616h-.004c-.377 0-.724-.01-1.059-.032l-.461-.03v13.015l.396.034c.367.033.746.049 1.127.049a15.376 15.376 0 0 0 3.89-.514l-.107.024a15.79 15.79 0 0 0 3.051-1.104l-.094.041.247-.119V5.186zM20.421 25.835a.85.85 0 0 0-.613-.261l-.032.001h.002-.013a.966.966 0 0 0-.365.072l.006-.002a.837.837 0 0 0-.473.475l-.002.006a.919.919 0 0 0-.066.359v2.168c-.006.153.024.305.085.445.051.111.125.21.217.291a.748.748 0 0 0 .297.154c.106.029.215.045.324.045a.919.919 0 0 0 .899-.912v-.242h-.567V28.64a.481.481 0 0 1-.035.183l.001-.003a.337.337 0 0 1-.082.122.402.402 0 0 1-.237.083.286.286 0 0 1-.265-.116l-.001-.001a.504.504 0 0 1-.076-.269v-.023.001-2.022a.7.7 0 0 1 .07-.324.29.29 0 0 1 .244-.133l.035.002h-.001.011c.099 0 .187.048.242.122l.001.001a.453.453 0 0 1 .094.279v.013-.001.187h.561v-.231c0-.133-.025-.26-.072-.377l.002.007a.894.894 0 0 0-.19-.306zm3.367-.024a.976.976 0 0 0-.982-.178.897.897 0 0 0-.517.475l-.002.006a1.007 1.007 0 0 0-.083.42v2.079a1.01 1.01 0 0 0 .083.426.847.847 0 0 0 .219.291c.087.08.189.143.299.183a.978.978 0 0 0 .984-.184l-.001.001a.893.893 0 0 0 .214-.291c.058-.134.086-.279.083-.426v-2.097a1.01 1.01 0 0 0-.086-.408l.003.006a.951.951 0 0 0-.213-.304zm-.265 2.803.001.032a.374.374 0 0 1-.114.269.416.416 0 0 1-.534-.001h.001a.373.373 0 0 1-.114-.268l.002-.035v.001-2.079l-.001-.032c0-.105.044-.201.114-.268a.416.416 0 0 1 .534.001h-.001c.07.068.114.163.114.268 0 .011 0 .023-.002.034v-.001 2.08zm4.687.929v-3.937h-.545l-.716 2.084h-.01l-.722-2.083h-.539v3.936h.562v-2.394h.01l.55 1.693h.281l.555-1.693h.01v2.394h.562zm3.195-3.661a.779.779 0 0 0-.318-.215 1.215 1.215 0 0 0-.386-.061h-.023.001-.835v3.937h.561v-1.538h.289c.175.008.349-.029.506-.107a.823.823 0 0 0 .306-.297l.002-.004a.94.94 0 0 0 .129-.343c.019-.124.03-.267.03-.412v-.037.002a2.212 2.212 0 0 0-.055-.562.836.836 0 0 0-.207-.362zm-.29 1.2a.5.5 0 0 1-.053.208l.001-.003a.316.316 0 0 1-.143.137l-.002.001a.562.562 0 0 1-.235.05l-.03-.001h.001-.256v-1.338h.289l.027-.001a.53.53 0 0 1 .229.051l-.003-.001a.323.323 0 0 1 .131.143l.001.002a.572.572 0 0 1 .049.219v.262c0 .091.006.186 0 .27h-.006zm2.947-1.476h-.46l-.867 3.937h.561l.165-.846h.765l.165.846h.561l-.889-3.937zm-.518 2.555.276-1.427h.01l.274 1.427h-.561zm4.142-.184h-.01l-.847-2.371h-.539v3.937h.561v-2.367h.011l.857 2.367h.528v-3.936h-.561v2.371zm3.427-2.371-.451 1.566h-.011l-.451-1.566h-.593l.77 2.273v1.663h.561v-1.663l.77-2.273h-.594zm-22.256 5.048h.27v.758h.183v-.759h.269v-.155h-.722v.156zm2.273-.156-.354.914h.195l.075-.208h.365l.078.208h.2l-.363-.914h-.195zm-.029.553.124-.339.124.339H21.1zm2.275.024h.211v.118a.344.344 0 0 1-.217.077h-.013a.231.231 0 0 1-.181-.087.376.376 0 0 1-.068-.218l.001-.021v.001c0-.203.088-.305.263-.305l.02-.001c.09 0 .166.062.187.145v.001l.181-.035c-.039-.178-.167-.269-.387-.269h-.012a.462.462 0 0 0-.308.118.444.444 0 0 0-.132.353v-.002.021c0 .123.044.235.118.322l-.001-.001a.445.445 0 0 0 .319.135l.029-.001h-.001.015a.546.546 0 0 0 .373-.146v-.36h-.396v.154zm2.294-.577h-.185v.914h.64v-.155h-.455v-.759zm1.94 0h-.185v.914h.185v-.914zm1.896.611-.374-.61h-.179v.914h.171v-.597l.367.597h.184v-.914h-.17v.611zm1.715-.099h.455v-.155h-.455v-.2h.49v-.156h-.675v.914h.694v-.155h-.509v-.247zm4.157-.151h-.36v-.36h-.183v.914h.183v-.4h.36v.4h.184v-.914h-.184v.361zm1.725.151h.457v-.155h-.457v-.2h.491v-.156h-.674v.914h.693v-.155h-.509v-.247zm2.339 0c.159-.025.24-.109.24-.254a.211.211 0 0 0-.089-.203h-.001a.506.506 0 0 0-.232-.055l-.037.001h.002-.387v.914h.184v-.382h.051c.036 0 .07.008.101.022l-.002-.001a.19.19 0 0 1 .065.067l.199.29h.219l-.111-.178a.635.635 0 0 0-.2-.218l-.002-.001zm-.185-.127h-.135v-.229h.145a.461.461 0 0 1 .19.022l-.003-.001c.025.022.04.054.04.089a.12.12 0 0 1-.048.096.496.496 0 0 1-.153.023l-.036-.001h.002zm1.949.127h.455v-.155h-.455v-.2h.491v-.156h-.677v.914h.694v-.155h-.509v-.247z"/>
    </symbol>
    <symbol id="icon-Logo-3" viewBox="0 0 59 32">
      <path d="M21.034 28.127c.009 0 .018.002.026.006l.023.013.126.119a1.039 1.039 0 0 1-.347.223l-.007.002c-.16.057-.331.085-.503.081h-.026c-.16 0-.314-.028-.457-.079l.009.003a1.057 1.057 0 0 1-.357-.213l.001.001a.958.958 0 0 1-.228-.323l-.002-.006a1.063 1.063 0 0 1-.081-.41v-.013.001-.014a1 1 0 0 1 .09-.416l-.003.006a.98.98 0 0 1 .245-.329c.107-.092.233-.165.37-.212l.008-.002c.141-.048.303-.076.471-.076h.017-.001c.154-.003.309.021.453.069.125.047.24.111.339.19l-.106.127a.113.113 0 0 1-.026.023.076.076 0 0 1-.037.01h-.006a.1.1 0 0 1-.046-.014l-.057-.034-.078-.043a.88.88 0 0 0-.244-.075l-.005-.001a1.146 1.146 0 0 0-.172-.013h-.017.001-.012c-.121 0-.237.021-.345.059l.007-.002a.816.816 0 0 0-.275.16l.001-.001a.733.733 0 0 0-.178.254.824.824 0 0 0-.065.323v.012-.001.013c0 .118.024.23.067.332l-.002-.006c.081.193.238.34.432.407l.005.002a.936.936 0 0 0 .325.054 1.38 1.38 0 0 0 .193-.011.768.768 0 0 0 .418-.175l-.001.001a.102.102 0 0 1 .06-.022zm3.644-.596c.002.143-.027.286-.085.419a.906.906 0 0 1-.237.325l-.001.001a1.075 1.075 0 0 1-.373.213 1.557 1.557 0 0 1-.969-.004l.011.003a1.136 1.136 0 0 1-.373-.215l.001.001a.946.946 0 0 1-.237-.323l-.002-.006a1.066 1.066 0 0 1 .003-.847l-.003.007a.992.992 0 0 1 .24-.33c.106-.09.232-.16.371-.206.309-.103.65-.103.959 0 .14.049.267.121.372.214a.965.965 0 0 1 .324.721v.026-.001zm-.332 0a.869.869 0 0 0-.059-.337.693.693 0 0 0-.431-.409l-.005-.001a1.113 1.113 0 0 0-.706.003l.008-.002a.732.732 0 0 0-.267.16.685.685 0 0 0-.169.247l-.002.005a.976.976 0 0 0 0 .674.69.69 0 0 0 .437.41c.225.072.472.072.697 0a.7.7 0 0 0 .435-.41.854.854 0 0 0 .059-.337zm2.817.354.033.075c.013-.027.024-.051.037-.075a.665.665 0 0 1 .041-.074l.806-1.251c.016-.022.03-.035.046-.04s.035-.007.054-.007h.013-.001.238v2.036h-.282v-1.56l-.001-.035.001-.037v.002l-.811 1.269a.11.11 0 0 1-.047.046h-.001a.14.14 0 0 1-.068.017h-.049a.137.137 0 0 1-.069-.018h.001a.12.12 0 0 1-.047-.045v-.001l-.834-1.278v1.634h-.273v-2.032h.248c.02 0 .039.003.057.007h-.002a.087.087 0 0 1 .044.038l.823 1.253c.017.023.03.048.041.073zm3.034-.101v.762h-.315v-2.033h.703a1.52 1.52 0 0 1 .393.045.79.79 0 0 1 .278.126c.067.052.121.12.156.197l.001.003a.619.619 0 0 1 .054.26v.009c0 .185-.089.35-.227.453l-.001.001a.814.814 0 0 1-.274.134l-.006.001a1.377 1.377 0 0 1-.379.047l-.382-.006zm0-.218h.382a.915.915 0 0 0 .245-.031.54.54 0 0 0 .178-.088l-.001.001a.383.383 0 0 0 .145-.301v-.005l.001-.021a.328.328 0 0 0-.034-.147l.001.002a.394.394 0 0 0-.11-.138l-.001-.001a.677.677 0 0 0-.426-.109h.002-.382v.838zm4.24.983h-.253a.12.12 0 0 1-.065-.019.139.139 0 0 1-.041-.046v-.001l-.214-.492h-1.078l-.222.491a.118.118 0 0 1-.106.066h-.253l.946-2.036h.328l.959 2.036zm-1.562-.756h.89l-.375-.829a1.236 1.236 0 0 1-.069-.182l-.002-.009-.036.106a.858.858 0 0 1-.034.086l-.373.829zm2.925-1.271a.14.14 0 0 1 .047.036l1.381 1.535v-1.581h.282v2.036h-.164a.153.153 0 0 1-.06-.012h.001a.174.174 0 0 1-.05-.038l-1.378-1.534.001.035-.001.037v-.002 1.513h-.282v-2.036h.167a.14.14 0 0 1 .057.009zm4.034 1.217v.809h-.315v-.809l-.872-1.226h.289c.023 0 .044.006.061.018a.183.183 0 0 1 .042.046l.546.791c.037.052.07.112.094.175l.002.005.041-.087a.724.724 0 0 1 .054-.093l.538-.797a.187.187 0 0 1 .041-.043.102.102 0 0 1 .062-.02h.291l-.874 1.232zm-12.827-4.644c.137.015.276.027.417.038 2.129-.813 3.929-2.145 5.177-3.828s1.887-3.642 1.838-5.634l-2.345-2.004a10.045 10.045 0 0 1-.645 6.331c-.898 2.018-2.436 3.783-4.441 5.097z"/>
      <path d="m26.17 23.002.063.011c2.143-1.31 3.777-3.138 4.69-5.25s1.065-4.408.433-6.594l-3.341-2.854c1.351 2.346 1.895 4.972 1.569 7.571s-1.511 5.067-3.414 7.115zm11.33-6.978c-.567 2.189-1.946 4.162-3.931 5.629-.541.405-1.152.786-1.796 1.112l-.071.033c1.616-.406 3.102-1.123 4.342-2.097s2.202-2.178 2.811-3.52l-1.354-1.157z"/>
      <path d="m36.969 15.702-1.929-1.648c-.037 1.879-.662 3.715-1.811 5.318s-2.779 2.914-4.721 3.796h.01c.433 0 .865-.022 1.295-.066 1.815-.633 3.419-1.64 4.667-2.931s2.104-2.827 2.489-4.469zm-10.52-8.59-2.301-1.969c-2.057.679-3.827 1.873-5.077 3.426s-1.922 3.392-1.929 5.277c.008 2.082.828 4.103 2.331 5.742s3.603 2.803 5.967 3.308c2.111-2.198 3.347-4.913 3.528-7.751s-.702-5.651-2.52-8.032zm15.837 8.287c-.009-2.47-1.161-4.838-3.206-6.585-2.044-1.747-4.815-2.731-7.706-2.739h-.025c-1.388 0-2.723.227-3.97.647l.088-.026 14.091 12.039c.459-.98.727-2.127.729-3.337v-.001z"/>
    </symbol>
    <symbol id="icon-Logo-4" viewBox="0 0 59 32">
      <path d="M13.759 12.296h-.002c-1.363 0-2.469.997-2.469 2.225v.002c0 1.229 1.106 2.225 2.469 2.225h.002c1.363 0 2.469-.996 2.469-2.225v-.002c0-1.229-1.105-2.225-2.469-2.225zm18.219-.711c-.003-1.707-.757-3.343-2.096-4.551-1.339-1.207-3.153-1.887-5.047-1.891-1.894.003-3.709.683-5.049 1.89s-2.094 2.844-2.097 4.551v9.414s14.287-1.434 14.289-9.412v-.002zM6.286 24.088c.003 1.188.528 2.326 1.459 3.166s2.194 1.314 3.511 1.317c1.317-.003 2.579-.477 3.511-1.317s1.456-1.977 1.46-3.166v-6.549s-9.942.998-9.942 6.548zm4.971 1.174c-.257 0-.509-.069-.723-.198a1.218 1.218 0 0 1-.476-.52l-.003-.007a1.045 1.045 0 0 1-.073-.685l-.001.007c.056-.241.182-.446.355-.6l.001-.001c.181-.161.408-.275.659-.32l.008-.001c.253-.046.514-.022.752.067s.441.239.584.432a1.093 1.093 0 0 1 .121 1.103 1.164 1.164 0 0 1-.282.382c-.119.107-.26.194-.414.252l-.009.003c-.148.057-.319.09-.498.09h-.002v-.005zm9.091-2.111v2.438h-.502v-2.438h.502zm.971 1.042v.392H20.21v-.392h1.109zm.117-1.042v.393h-1.225v-.393h1.225zm2.294 1.162v.115c0 .186-.025.352-.075.499a1.102 1.102 0 0 1-.214.379l.001-.001a.919.919 0 0 1-.328.236c-.12.052-.259.082-.405.082h-.016.001c-.153 0-.293-.027-.42-.082a.951.951 0 0 1-.327-.235l-.001-.001a1.106 1.106 0 0 1-.214-.369l-.002-.008a1.505 1.505 0 0 1-.076-.477v-.023.001-.115c0-.186.025-.353.075-.499.048-.145.121-.271.214-.378l-.001.001a.938.938 0 0 1 .328-.238c.127-.055.267-.082.421-.082.154 0 .294.027.42.082a.912.912 0 0 1 .328.238c.093.104.164.229.214.377.051.146.077.312.077.498zm-.508.116v-.119c0-.129-.011-.243-.035-.341a.743.743 0 0 0-.106-.251l.002.003a.448.448 0 0 0-.165-.15l-.002-.001a.478.478 0 0 0-.216-.052h-.01a.485.485 0 0 0-.226.051.465.465 0 0 0-.165.149l-.001.002a.752.752 0 0 0-.101.243l-.001.005a1.452 1.452 0 0 0-.035.32v.022-.001.119c0 .129.011.242.035.342a.76.76 0 0 0 .104.25c.046.067.102.118.167.152s.141.052.226.052c.085 0 .16-.017.226-.051a.453.453 0 0 0 .165-.151l.001-.002a.77.77 0 0 0 .102-.25c.022-.097.035-.207.035-.321v-.022.001zm2.138.522v-.005a.308.308 0 0 0-.021-.114l.001.002a.23.23 0 0 0-.07-.097.636.636 0 0 0-.142-.087l-.004-.002a1.852 1.852 0 0 0-.228-.086l-.015-.004a3.048 3.048 0 0 1-.334-.128l.019.008a1.265 1.265 0 0 1-.264-.158l.003.002a.691.691 0 0 1-.175-.206l-.002-.004a.575.575 0 0 1-.064-.264v-.012.001-.008c0-.098.025-.191.068-.271l-.002.003a.637.637 0 0 1 .187-.214.861.861 0 0 1 .285-.139 1.3 1.3 0 0 1 .363-.049c.179 0 .337.033.47.097s.238.154.311.266a.691.691 0 0 1 .112.387h-.499v-.009a.38.38 0 0 0-.046-.181l.001.002a.307.307 0 0 0-.132-.128l-.002-.001a.467.467 0 0 0-.207-.047h-.019.001-.017a.517.517 0 0 0-.204.042l.003-.001a.295.295 0 0 0-.131.105l-.001.001a.257.257 0 0 0-.043.143v.005c0 .041.01.079.03.112a.343.343 0 0 0 .093.093l.001.001c.041.029.091.057.152.082s.13.051.209.075c.133.04.25.085.35.135s.186.106.254.169a.62.62 0 0 1 .205.483v.023a.587.587 0 0 1-.24.473l-.002.001c-.078.058-.171.102-.279.132s-.229.046-.363.046a1.4 1.4 0 0 1-.357-.047 1.067 1.067 0 0 1-.324-.148l.004.002a.742.742 0 0 1-.226-.244l-.002-.004a.712.712 0 0 1-.085-.357h.504c0 .076.011.14.035.193a.323.323 0 0 0 .098.126l.001.001a.436.436 0 0 0 .151.07l.003.001c.06.015.126.022.197.022h.019c.07 0 .138-.014.199-.038l-.004.001a.265.265 0 0 0 .167-.246v-.004zm1.934-1.8v2.438h-.501v-2.438h.501zm.75 0v.393h-1.989v-.393h1.989zm1.922 2.046v.392h-1.297v-.392h1.297zm-1.133-2.046v2.438h-.503v-2.438h.503zm.964.993v.382h-1.129v-.382h1.129zm.167-.993v.393h-1.296v-.393h1.296zm.295 0h.909c.187 0 .347.028.481.083.135.056.239.139.311.248s.109.244.109.403a.773.773 0 0 1-.067.337.647.647 0 0 1-.184.232l-.001.001a.965.965 0 0 1-.273.145l-.007.002-.159.084h-.79l-.003-.392h.604a.46.46 0 0 0 .206-.048l-.003.001a.317.317 0 0 0 .13-.129l.001-.002a.392.392 0 0 0 .045-.185V23.91a.436.436 0 0 0-.045-.194l.001.003a.294.294 0 0 0-.131-.13l-.002-.001a.484.484 0 0 0-.207-.046h-.017.001-.407v2.045h-.502v-2.438zm1.362 2.438-.555-1.087.53-.003.563 1.067v.023h-.537zm2.637-.868h-.621v-.392h.641a.493.493 0 0 0 .217-.049l-.003.001a.3.3 0 0 0 .131-.133l.001-.002a.485.485 0 0 0-.002-.398l.001.003a.342.342 0 0 0-.131-.15l-.001-.001a.433.433 0 0 0-.216-.058h-.019.001-.447v2.045h-.502v-2.438h.949c.191 0 .354.034.491.104.137.068.242.162.314.283s.109.258.109.413c0 .158-.036.294-.109.409s-.177.204-.314.266c-.137.063-.3.094-.491.094zm2.896.476v.392h-1.297v-.392h1.297zm-1.133-2.046v2.438h-.503v-2.438h.503zm.964.993v.382h-1.128v-.382h1.129zm.168-.993v.393h-1.295v-.393h1.295zm1.418 0v2.438h-.501v-2.438h.501zm.75 0v.393h-1.989v-.393h1.989zm1.921 2.046v.392h-1.297v-.392h1.297zm-1.133-2.046v2.438h-.502v-2.438h.502zm.964.993v.382h-1.128v-.382h1.128zm.168-.993v.393h-1.295v-.393h1.295zm.294 0h.909c.187 0 .347.028.481.083s.239.139.311.248a.717.717 0 0 1 .109.403c0 .131-.023.243-.067.337s-.107.171-.184.232l-.001.001a.965.965 0 0 1-.273.145l-.007.002-.159.084h-.79l-.003-.392h.604a.46.46 0 0 0 .206-.048l-.003.001a.317.317 0 0 0 .13-.129l.001-.002a.394.394 0 0 0 .046-.186V23.912a.44.44 0 0 0-.045-.195l.001.003a.297.297 0 0 0-.13-.13l-.002-.001a.484.484 0 0 0-.207-.046h-.017.001-.407v2.045h-.502V23.15zm1.363 2.438-.556-1.087.531-.003.562 1.067v.023h-.537zm2.103-.638v-.004a.341.341 0 0 0-.021-.116l.001.002a.23.23 0 0 0-.07-.097.636.636 0 0 0-.142-.087l-.004-.002a1.793 1.793 0 0 0-.228-.086l-.015-.004a2.899 2.899 0 0 1-.334-.128l.019.008a1.291 1.291 0 0 1-.264-.158l.003.002a.691.691 0 0 1-.175-.206l-.002-.004a.575.575 0 0 1-.064-.264v-.012.001-.008c0-.098.025-.191.068-.271l-.002.003a.637.637 0 0 1 .187-.214.861.861 0 0 1 .285-.139 1.3 1.3 0 0 1 .363-.049c.179 0 .337.033.47.097s.238.154.311.266a.683.683 0 0 1 .112.387H45v-.009a.38.38 0 0 0-.046-.181l.001.002a.307.307 0 0 0-.132-.128l-.002-.001a.467.467 0 0 0-.207-.047h-.019.001-.017a.517.517 0 0 0-.204.042l.003-.001a.287.287 0 0 0-.13.105l-.001.001a.257.257 0 0 0-.043.144v.004c0 .041.01.079.03.112a.343.343 0 0 0 .093.093l.001.001c.041.029.091.057.152.082s.13.051.209.075c.133.04.25.085.35.135s.186.106.254.169a.62.62 0 0 1 .205.483v.023a.585.585 0 0 1-.24.473l-.002.001c-.078.058-.171.102-.279.132s-.229.046-.363.046c-.121 0-.24-.016-.357-.047a1.067 1.067 0 0 1-.324-.148l.004.002a.732.732 0 0 1-.226-.244l-.002-.004a.712.712 0 0 1-.085-.357h.504c0 .076.011.14.035.193a.323.323 0 0 0 .098.126l.001.001a.436.436 0 0 0 .151.07l.003.001c.06.015.126.022.198.022h.018c.07 0 .138-.014.199-.038l-.004.001a.265.265 0 0 0 .167-.246v-.004z"/>
    </symbol>
    <symbol id="icon-Logo-5" viewBox="0 0 59 32">
      <path d="M15.31 25.356c.14.157.215.352.211.553.007.131-.019.262-.075.383s-.143.229-.252.315a1.516 1.516 0 0 1-.956.254h.005-1.671v-3.504h1.637a1.51 1.51 0 0 1 .914.236l-.006-.004c.105.08.189.181.245.294s.08.238.073.362a.756.756 0 0 1-.19.535.91.91 0 0 1-.492.273l-.006.001a.985.985 0 0 1 .565.299zm-1.961-.529h.7a.712.712 0 0 0 .445-.116.415.415 0 0 0 .119-.153l.001-.003a.376.376 0 0 0 .03-.189v.002l.001-.029a.384.384 0 0 0-.034-.159l.001.003a.443.443 0 0 0-.116-.156h-.001a.726.726 0 0 0-.461-.118h.003-.689v.919zm1.213 1.344a.437.437 0 0 0 .128-.158l.001-.003a.384.384 0 0 0 .037-.168l-.001-.028v.001l.001-.025a.395.395 0 0 0-.04-.175l.001.002a.458.458 0 0 0-.13-.161l-.001-.001a.777.777 0 0 0-.429-.128c-.016 0-.033 0-.049.002h.002-.734v.964h.743a.794.794 0 0 0 .47-.122zm4.095.692-.911-1.37h-.343v1.369h-.783v-3.504h1.483a1.566 1.566 0 0 1 1.037.3l-.004-.003c.207.19.333.441.353.707s-.066.529-.242.743a1.246 1.246 0 0 1-.707.357l.97 1.4h-.851zm-1.254-1.848h.641c.445 0 .667-.177.667-.531l.001-.029a.488.488 0 0 0-.038-.187l.001.003a.51.51 0 0 0-.127-.181.741.741 0 0 0-.506-.141h.003-.649l.008 1.066zm5.536 1.142h-1.562l-.276.705h-.821l1.434-3.465h.888l1.428 3.465h-.822l-.27-.705zm-.209-.53-.571-1.479-.57 1.479h1.141zm5.569 1.236h-.777l-1.744-2.383v2.383h-.776v-3.505h.776l1.743 2.397v-2.397h.778v3.504zm4.438-.84c-.169.27-.409.482-.693.614l-.01.004a2.5 2.5 0 0 1-1.093.221h-1.385v-3.504h1.385l.064-.001c.372 0 .726.08 1.045.223l-.016-.006c.298.135.543.349.703.611a1.867 1.867 0 0 1-.005 1.847l.005-.009zm-.89-.083c.211-.216.341-.511.344-.836a1.207 1.207 0 0 0-.344-.836 1.438 1.438 0 0 0-.978-.298h.004-.54v2.269h.54a1.443 1.443 0 0 0 .977-.3l-.003.002zM23.426 3.867s10.038 3.411 9.825 8.349v8.351s-10.031-3.414-9.822-8.351l-.003-8.349zm18.768 14.744a14.707 14.707 0 0 1 6.378-2.116v-2.614c-2.638.915-4.875 2.574-6.378 4.73z"/>
      <path d="M41.055 19.399c1.551-2.813 4.242-4.983 7.517-6.065V5.801s-14.296 4.86-13.994 11.891v11.889s.637-.217 1.639-.625c0-.38 0-.763.046-1.149.296-3.264 2.019-6.289 4.792-8.409z"/>
      <path d="M39.695 23.815c.084-.899.261-1.726.523-2.513l-.023.079c-1.727 1.831-2.772 4.103-2.99 6.497-.021.226-.032.451-.038.685a40.123 40.123 0 0 0 2.987-1.418l-.237.114a11.185 11.185 0 0 1-.219-3.487l-.003.044zm.568.043a10.655 10.655 0 0 0 .189 3.187l-.012-.07c3.906-2.104 8.294-5.354 8.125-9.283v-.343c-2.79.282-5.401 1.38-7.431 3.126a10.503 10.503 0 0 0-.868 3.341l-.003.042z"/>
    </symbol>
    <symbol id="icon-Logo-6" viewBox="0 0 59 32">
      <path d="M30.589 15.682a1.673 1.673 0 0 1-.346-1.143v.005-1.65c0-.506.115-.89.345-1.153s.624-.394 1.183-.393c.526 0 .898.112 1.119.336.24.286.357.635.33.987v.389h-.939v-.393a2.072 2.072 0 0 0-.027-.385.372.372 0 0 0-.133-.228l-.001-.001a.541.541 0 0 0-.343-.088h.002l-.041-.001a.572.572 0 0 0-.319.097l.002-.001a.437.437 0 0 0-.155.249l-.001.003a1.844 1.844 0 0 0-.037.376v.034-.002 2.003a1.022 1.022 0 0 0 .123.567l-.003-.005a.46.46 0 0 0 .184.136l.003.001c.076.029.16.04.243.031.12.009.24-.024.333-.091a.407.407 0 0 0 .14-.241v-.002a2.16 2.16 0 0 0 .029-.401v-.406h.94v.371a1.507 1.507 0 0 1-.328 1.04l.002-.003c-.215.245-.583.367-1.124.367s-.949-.131-1.181-.403zm3.912.017c-.237-.257-.356-.631-.356-1.127v-1.736c0-.49.119-.861.356-1.113s.634-.377 1.191-.376c.553 0 .947.126 1.185.376.238.252.358.623.358 1.113v1.736c0 .49-.121.866-.362 1.125s-.634.387-1.181.387-.951-.131-1.191-.386zm1.628-.417a.968.968 0 0 0 .113-.514v-2.126a.942.942 0 0 0-.113-.508l.002.005a.452.452 0 0 0-.188-.138L35.94 12a.52.52 0 0 0-.251-.03h.003a.521.521 0 0 0-.253.031l.004-.001a.45.45 0 0 0-.193.137l-.001.001a.912.912 0 0 0-.113.503v2.136a.95.95 0 0 0 .113.514.65.65 0 0 0 .685.126l-.004.002a.606.606 0 0 0 .198-.127v-.01zm2.236-3.884h1.011l.761 3.203.778-3.203h.985l.099 4.623h-.728l-.078-3.213-.751 3.213h-.583l-.778-3.225-.072 3.225h-.735l.091-4.623zm4.768 0h1.576c.907 0 1.362.438 1.362 1.313 0 .838-.478 1.257-1.434 1.256H44.1v2.055h-.973l.006-4.623zm1.346 1.976a.765.765 0 0 0 .535-.146.744.744 0 0 0 .139-.525v.003l.001-.053c0-.13-.017-.257-.05-.377l.002.01a.345.345 0 0 0-.072-.127.405.405 0 0 0-.121-.092l-.002-.001a1 1 0 0 0-.382-.075l-.055.002h.003-.377v1.382h.377zm2.995-1.976h1.045l1.072 4.623h-.907l-.211-1.066h-.932l-.218 1.066h-.92l1.072-4.623zm.893 3.021-.364-1.941-.364 1.941h.727zm2.089-3.021h.681l1.303 2.637v-2.637h.808v4.623H52.6l-1.311-2.753v2.753h-.834l.002-4.623zm4.683 2.86-1.083-2.854h.913l.661 1.833.621-1.833h.893l-1.07 2.854v1.762h-.934v-1.762zM32.09 18.042v.242h-.794v1.878h-.332v-1.878h-.798v-.242h1.924zm2.488 2.12h-.264a.119.119 0 0 1-.065-.02.117.117 0 0 1-.043-.048v-.001l-.23-.503h-1.101l-.23.503a.142.142 0 0 1-.034.057.117.117 0 0 1-.066.02h-.264l.973-2.12h.338l.985 2.111zm-1.611-.787h.918l-.389-.863a1.417 1.417 0 0 1-.07-.189l-.003-.011-.037.113-.035.089-.385.861zm3.288.579c.061.003.122.003.183 0 .053-.005.105-.013.156-.025.056-.012.103-.025.148-.041l-.008.003c.043-.015.086-.034.13-.053v-.477h-.394a.064.064 0 0 1-.024-.004h.001a.092.092 0 0 1-.024-.013.061.061 0 0 1-.015-.017.041.041 0 0 1-.005-.019v-.165h.755v.813a1.45 1.45 0 0 1-.4.171l-.01.002c-.08.02-.161.034-.243.043a2.768 2.768 0 0 1-.284.014h-.011c-.172 0-.336-.029-.489-.083l.01.003a1.194 1.194 0 0 1-.391-.223l.002.001a1.035 1.035 0 0 1-.249-.33l-.003-.006a1.05 1.05 0 0 1-.089-.426v-.015.001-.013c0-.155.032-.303.09-.437l-.003.007a.982.982 0 0 1 .251-.336 1.19 1.19 0 0 1 .389-.22 1.64 1.64 0 0 1 .522-.079c.091 0 .181.006.27.018a1.273 1.273 0 0 1 .595.249l-.093.131a.079.079 0 0 1-.032.028.093.093 0 0 1-.044.011.139.139 0 0 1-.061-.017h.001a1.278 1.278 0 0 1-.1-.053l.005.003a.798.798 0 0 0-.125-.055l-.006-.002a1.208 1.208 0 0 0-.171-.046l-.008-.001a1.417 1.417 0 0 0-.234-.018h-.014.001-.012c-.13 0-.255.022-.372.061l.008-.002a.81.81 0 0 0-.286.169l.001-.001a.742.742 0 0 0-.182.263.982.982 0 0 0 .003.714l-.002-.007c.043.099.109.19.195.267.08.073.177.13.284.168.124.037.255.051.385.042zm3.102-.033h1.063v.242h-1.387v-2.12h.333l-.008 1.878zm2.167.241h-.333v-2.12h.333v2.12zm1.237-2.11c.02.01.037.023.051.039l1.422 1.598-.001-.038.002-.039v.002-1.58h.29v2.129H44.347a.16.16 0 0 1-.062-.013h.001a.19.19 0 0 1-.052-.04l-1.42-1.597v1.649h-.278v-2.121h.173c.019 0 .038.003.055.01zm4.213-.01v.233h-1.179v.7h.955v.225h-.955v.723h1.179v.233h-1.522v-2.115h1.522zM12.111 4.948l14.773 3.619V21.25l-14.773-3.617V4.947zm-.947-1.081v14.382l16.666 4.085V7.954L11.164 3.868z"/>
      <path d="M20.096 29.01 3.429 24.922V10.541l16.667 4.086V29.01z"/>
      <path d="m11.44 4.785 14.58 3.574-6.2 5.352-14.582-3.576 6.202-5.35zm-.276-.918-7.735 6.674 16.667 4.086 7.734-6.674-16.666-4.086zm9.87 24.333 6.795-5.865-6.796-1.667v7.533z"/>
    </symbol>
    <symbol id="icon-Logo" viewBox="0 0 59 32">
      <path d="m21.714 4 4.005 3.815-7.433-.003v18.509h19.429v-7.077l4 3.811V4.001h-20zm15.824 14.795L26.184 7.978h11.354v10.817zm-3.525 4.818H21.36V11.165h.894v11.606h11.759v.843zm-10.13 6.136.471-.97h.388l-.684 1.283v.748h-.353v-.748l-.683-1.283h.389l.471.97zm1.739-.97h.083l.767 2.031h-.368l-.165-.475h-.786l-.164.475h-.367l.765-2.031h.234zm-.373 1.279h.595l-.297-.862-.297.862zm2.455-.337-.035-.044-.009-.013a1.04 1.04 0 0 1-.119-.193l-.003-.006a.546.546 0 0 1 .022-.474.44.44 0 0 1 .183-.175l.003-.001a.596.596 0 0 1 .28-.063c.103 0 .193.021.267.063a.439.439 0 0 1 .199.565l.001-.003a.511.511 0 0 1-.097.145 1.082 1.082 0 0 1-.139.123l-.003.002-.141.103.402.474a.796.796 0 0 0 .088-.365v-.015.001h.29c0 .099-.01.192-.029.28a.873.873 0 0 1-.15.338l.002-.002.297.351h-.389l-.118-.139a.786.786 0 0 1-.203.113l-.005.002a.921.921 0 0 1-.308.053h-.008a.779.779 0 0 1-.35-.074.554.554 0 0 1-.227-.201l-.001-.002a.553.553 0 0 1-.08-.288v-.01c0-.083.017-.155.051-.217a.722.722 0 0 1 .141-.177c.055-.05.118-.099.189-.149zm.167.204.451.531.001-.001a.524.524 0 0 1-.329.117h.001-.011a.374.374 0 0 1-.172-.042l-.001-.001a.295.295 0 0 1-.112-.115l.001.002a.332.332 0 0 1 .018-.345l.001-.002a.535.535 0 0 1 .109-.114l.042-.03zm.08-.371.125-.083a.468.468 0 0 0 .125-.113l.001-.001a.25.25 0 0 0 .038-.133v-.01a.203.203 0 0 0-.202-.196h-.012.001-.006a.207.207 0 0 0-.187.119l-.001.001a.288.288 0 0 0 .01.25l-.001-.002c.021.044.05.09.088.138l.023.03zm3.554.596c-.011.133-.049.251-.111.355s-.152.185-.266.245a.902.902 0 0 1-.417.089.754.754 0 0 1-.597-.26c-.071-.084-.127-.185-.165-.303s-.056-.25-.056-.396v-.169c0-.146.019-.278.057-.396l.002-.006c.036-.11.093-.211.166-.296s.159-.15.261-.194a.846.846 0 0 1 .345-.067h-.001.027c.14 0 .272.033.384.09l.003.002c.105.056.194.14.256.245l-.002-.004a.892.892 0 0 1 .117.365h-.349a.65.65 0 0 0-.061-.224c-.031-.063-.077-.11-.137-.143s-.14-.05-.237-.05h.001-.012a.457.457 0 0 0-.198.045l-.002.001a.389.389 0 0 0-.146.13.629.629 0 0 0-.091.213 1.304 1.304 0 0 0-.029.288V29.892c0 .095.01.188.027.268l.001.004a.663.663 0 0 0 .083.209l.001.002a.403.403 0 0 0 .144.137l-.002-.001c.06.032.129.05.202.05h.012-.001.022c.08 0 .155-.018.22-.048l.002-.001a.317.317 0 0 0 .139-.137l-.002.004a.635.635 0 0 0 .066-.228h.349zm1.937-.299v-.111c0-.153-.02-.291-.061-.411a.906.906 0 0 0-.172-.313l.001.001a.74.74 0 0 0-.262-.195l-.005-.002a.83.83 0 0 0-.343-.069.83.83 0 0 0-.342.069.746.746 0 0 0-.267.197.946.946 0 0 0-.173.311 1.26 1.26 0 0 0-.062.393v.019-.001.111c0 .154.021.291.062.413.04.12.1.223.176.312l-.001-.001a.776.776 0 0 0 .608.264c.125 0 .24-.023.343-.067a.736.736 0 0 0 .265-.197c.074-.086.131-.189.171-.311s.06-.259.06-.413zm-.349-.114v.114c0 .114-.011.214-.034.302a.664.664 0 0 1-.096.224l.002-.002a.413.413 0 0 1-.151.134l-.002.001a.462.462 0 0 1-.199.045h-.019a.453.453 0 0 1-.201-.046l.003.001a.448.448 0 0 1-.155-.134l-.001-.001a.658.658 0 0 1-.097-.217l-.001-.005a1.168 1.168 0 0 1-.034-.286v-.017.001-.114c0-.113.011-.213.034-.3s.054-.16.096-.219a.426.426 0 0 1 .153-.133l.002-.001a.445.445 0 0 1 .199-.046h.008c.077 0 .146.015.208.046s.113.074.154.134a.614.614 0 0 1 .097.219c.023.087.034.187.034.3z"/>
    </symbol>
    <symbol id="icon-twitter" viewBox="0 0 32 32">
      <path d="M32 6.078c-1.1.494-2.376.858-3.712 1.029l-.068.007a6.56 6.56 0 0 0 2.873-3.58l.013-.046a12.858 12.858 0 0 1-4.076 1.574l-.084.014A6.56 6.56 0 0 0 15.598 9.56c0 .52.044 1.02.152 1.496A18.554 18.554 0 0 1 2.255 4.228l-.027-.034a6.496 6.496 0 0 0-.895 3.311 6.562 6.562 0 0 0 2.888 5.442l.023.015a6.465 6.465 0 0 1-2.997-.823l.033.017v.072a6.592 6.592 0 0 0 5.213 6.438l.043.008a6.408 6.408 0 0 1-1.669.216h-.054.003a5.842 5.842 0 0 1-1.279-.118l.037.006c.873 2.624 3.273 4.496 6.121 4.57h.009a13.098 13.098 0 0 1-8.12 2.798h-.015.001c-.538 0-1.054-.024-1.57-.09C2.826 27.902 6.287 29 10.004 29h.063-.003c12.072 0 18.672-10 18.672-18.668 0-.29-.01-.57-.024-.848a13.186 13.186 0 0 0 3.258-3.359l.03-.047z"/>
    </symbol>
    <symbol id="icon-vector" viewBox="0 0 32 32">
      <path d="M32 3.224l-3.224-3.224-12.776 12.776-12.776-12.776-3.224 3.224 12.776 12.776-12.776 12.776 3.224 3.224 12.776-12.776 12.776 12.776 3.224-3.224-12.776-12.776 12.776-12.776z"></path>
    </symbol>
    <symbol id="icon-person-black-18dp-1" viewBox="0 0 32 32">
    <path d="M16 16c2.947 0 5.333-2.387 5.333-5.333s-2.387-5.333-5.333-5.333c-2.947 0-5.333 2.387-5.333 5.333s2.387 5.333 5.333 5.333zM16 18.667c-3.56 0-10.667 1.787-10.667 5.333v1.333c0 0.733 0.6 1.333 1.333 1.333h18.667c0.733 0 1.333-0.6 1.333-1.333v-1.333c0-3.547-7.107-5.333-10.667-5.333z"></path>
    </symbol>
    <symbol id="icon-email-black-18dp-1" viewBox="0 0 24 32">
    <path d="M20 8h-16c-1.1 0-1.99 0.9-1.99 2l-0.010 12c0 1.1 0.9 2 2 2h16c1.1 0 2-0.9 2-2v-12c0-1.1-0.9-2-2-2zM19.6 12.25l-7.070 4.42c-0.32 0.2-0.74 0.2-1.060 0l-7.070-4.42c-0.25-0.16-0.4-0.43-0.4-0.72 0-0.67 0.73-1.070 1.3-0.72l6.7 4.19 6.7-4.19c0.57-0.35 1.3 0.050 1.3 0.72 0 0.29-0.15 0.56-0.4 0.72z"></path>
    </symbol>
    <symbol id="icon-phone-black-18dp-1" viewBox="0 0 24 32">
    <path d="M19.635 18.487l-2.451-0.28c-0.589-0.067-1.167 0.135-1.582 0.55l-1.775 1.775c-2.731-1.389-4.969-3.618-6.359-6.359l1.785-1.785c0.415-0.415 0.618-0.994 0.55-1.582l-0.28-2.432c-0.116-0.975-0.936-1.708-1.92-1.708h-1.669c-1.090 0-1.997 0.907-1.93 1.997 0.511 8.24 7.102 14.821 15.332 15.332 1.090 0.068 1.997-0.839 1.997-1.93v-1.669c0.010-0.975-0.724-1.795-1.698-1.911z"></path>
    </symbol>
    <symbol id="icon-chek" viewBox="0 0 40 32">
    <path d="M33.782 1.020c0.691-0.662 1.611-1.027 2.565-1.020s1.869 0.387 2.55 1.059c0.681 0.672 1.076 1.584 1.101 2.543s-0.321 1.891-0.966 2.598l-19.578 24.617c-0.337 0.365-0.743 0.657-1.195 0.86s-0.939 0.312-1.434 0.322c-0.495 0.009-0.986-0.082-1.445-0.268s-0.876-0.463-1.226-0.815l-12.984-13.054c-0.362-0.339-0.652-0.747-0.853-1.201s-0.309-0.944-0.318-1.441 0.082-0.99 0.267-1.451c0.185-0.461 0.461-0.879 0.81-1.231s0.766-0.628 1.224-0.814 0.949-0.277 1.443-0.269c0.494 0.009 0.981 0.118 1.433 0.32s0.858 0.494 1.195 0.857l10.275 10.325 17.042-21.83c0.031-0.038 0.063-0.074 0.098-0.109h-0.005z"></path>
    </symbol>
    <symbol id="icon-frame" viewBox="0 0 32 32">
    <path d="M32 2.667l-32 15 10.227 3.156 15.773-12.323-11.998 13.488 0.010 0.003-0.012-0.003v7.345l5.735-5.576 7.265 2.242 5-23.333z"></path>
    </symbol>
    <symbol id="menu_btn" viewBox="0 0 32 32">
    <path d="M6.4 11.734v-2.134h19.2v2.134h-19.2zM6.4 17.066h19.2v-2.133h-19.2v2.133zM6.4 22.4h19.2v-2.134h-19.2v2.134z"></path>
    </symbol>
    <svg aria-hidden="true" style="position:absolute;width:0;height:0;overflow:hidden" xmlns="http://www.w3.org/2000/svg">
  <defs>
    <symbol id="icon-Logo-5" viewBox="0 0 32 32">
      <path d="M16.128 15.218a.89.89 0 0 1-.183-.6v-.87c0-.267.061-.47.182-.608s.329-.208.624-.207c.277 0 .473.059.59.177a.721.721 0 0 1 .174.521v.205h-.495v-.207a1.061 1.061 0 0 0-.014-.203.193.193 0 0 0-.071-.12.286.286 0 0 0-.179-.047.303.303 0 0 0-.189.05.233.233 0 0 0-.082.133.972.972 0 0 0-.019.215v1.056a.536.536 0 0 0 .064.297c.025.031.059.056.099.072s.084.021.128.017a.268.268 0 0 0 .175-.048.22.22 0 0 0 .074-.128c.012-.07.017-.141.015-.212v-.214h.495v.196a.795.795 0 0 1-.171.547c-.114.129-.308.194-.593.194s-.5-.069-.623-.213zM18.191 15.226c-.125-.136-.188-.333-.188-.594v-.916c0-.259.063-.454.188-.587s.334-.199.628-.198c.291 0 .499.066.625.198s.189.329.189.587v.916c0 .259-.064.457-.191.593s-.334.205-.623.205c-.288 0-.502-.069-.628-.204zm.858-.219a.507.507 0 0 0 .059-.271v-1.121a.5.5 0 0 0-.058-.266c-.025-.032-.06-.057-.101-.073s-.086-.021-.131-.016c-.044-.005-.09 0-.131.016s-.076.041-.102.073a.48.48 0 0 0-.059.266v1.126a.507.507 0 0 0 .059.271.341.341 0 0 0 .462 0v-.005zM20.227 12.958h.533l.401 1.689.41-1.689h.519l.052 2.438h-.384l-.041-1.695-.396 1.695h-.308l-.41-1.701-.038 1.701h-.388l.048-2.438zM22.741 12.958h.831c.479 0 .718.231.718.692 0 .442-.252.663-.756.662h-.283v1.084h-.513l.003-2.438zm.71 1.042a.384.384 0 0 0 .282-.077.393.393 0 0 0 .074-.275.75.75 0 0 0-.025-.221c-.007-.024-.02-.047-.038-.067s-.04-.037-.065-.049a.537.537 0 0 0-.229-.039h-.199v.729h.199zM25.029 12.958h.551l.565 2.438h-.478l-.112-.562h-.491l-.115.562h-.485l.565-2.438zm.471 1.594-.192-1.023-.192 1.023h.384zM26.601 12.958h.359l.687 1.391v-1.391h.426v2.438h-.342l-.691-1.452v1.452h-.44l.001-2.438zM29.07 14.467l-.571-1.505h.481l.349.967.327-.967h.471l-.564 1.505v.93h-.492v-.93zM16.92 16.462v.128h-.418v.991h-.175v-.991h-.42v-.128h1.014zM18.232 17.581h-.135a.057.057 0 0 1-.038-.011.058.058 0 0 1-.023-.026l-.121-.266h-.58l-.121.266a.078.078 0 0 1-.018.03.07.07 0 0 1-.038.011h-.135l.513-1.118h.178l.519 1.114zm-.849-.415h.484l-.205-.455a.825.825 0 0 1-.038-.105l-.019.059-.018.047-.203.454zM19.116 17.471h.096a.621.621 0 0 0 .156-.033l.069-.027v-.252h-.205c-.005 0-.01 0-.015-.002l-.013-.007-.008-.009a.014.014 0 0 1-.002-.011v-.086h.398v.429a.714.714 0 0 1-.217.091.928.928 0 0 1-.128.023c-.05.005-.1.007-.15.007a.75.75 0 0 1-.258-.042.62.62 0 0 1-.205-.117.537.537 0 0 1-.132-.177.592.592 0 0 1-.001-.466c.029-.066.075-.127.132-.177s.128-.09.205-.116a.982.982 0 0 1 .54-.004.626.626 0 0 1 .192.102l-.049.069c-.004.006-.01.012-.017.015s-.015.006-.023.006a.062.062 0 0 1-.032-.009.513.513 0 0 1-.05-.027.62.62 0 0 0-.293-.065.599.599 0 0 0-.198.031.431.431 0 0 0-.151.089.38.38 0 0 0-.095.139.521.521 0 0 0 0 .373.443.443 0 0 0 .253.23.577.577 0 0 0 .203.022zM20.751 17.453h.56v.128h-.731v-1.118h.175l-.004.991zM21.893 17.581h-.175v-1.118h.175v1.118zM22.545 16.468a.09.09 0 0 1 .027.02l.75.843a.267.267 0 0 1 0-.04V16.458h.153v1.123h-.088a.082.082 0 0 1-.038-.006.12.12 0 0 1-.028-.021l-.749-.842V17.582h-.147v-1.118h.091c.01 0 .02.002.029.005zM24.766 16.462v.123h-.622v.369h.504v.119h-.504v.382h.622v.123h-.802v-1.116h.802zM6.388 9.556l7.787 1.909v6.689l-7.787-1.908v-6.69zm-.499-.57v7.585l8.785 2.154v-7.584L5.889 8.986z"/>
      <path d="m10.597 22.247-8.786-2.156v-7.584l8.786 2.155v7.585zM6.035 9.47l7.686 1.885-3.268 2.823-7.687-1.886 3.27-2.822zm-.146-.484-4.078 3.52 8.786 2.155 4.077-3.52-8.785-2.155zM11.092 21.82l3.582-3.094-3.582-.879v3.973z"/>
    </symbol>
    <symbol id="icon-Logo-4" viewBox="0 0 32 32">
      <path d="M8.078 20.448a.431.431 0 0 1 .111.295c.004.07-.01.14-.039.204s-.075.122-.132.168a.793.793 0 0 1-.499.136h-.877v-1.869h.859c.17-.01.338.034.476.124.055.043.099.096.128.157s.042.127.038.193a.408.408 0 0 1-.1.286.476.476 0 0 1-.261.146.506.506 0 0 1 .296.16zm-1.029-.282h.367a.367.367 0 0 0 .233-.062c.028-.023.049-.051.063-.083s.019-.066.016-.1c.003-.034-.003-.068-.016-.099s-.034-.06-.061-.083a.38.38 0 0 0-.24-.063H7.05v.49zm.637.717c.029-.023.053-.053.068-.086s.022-.069.019-.104a.224.224 0 0 0-.089-.191.403.403 0 0 0-.249-.068H7.05v.514h.39a.405.405 0 0 0 .246-.065zM9.833 21.252l-.478-.73h-.18v.73h-.411v-1.869h.778a.812.812 0 0 1 .542.159.556.556 0 0 1 .058.773.645.645 0 0 1-.371.19l.509.747h-.447zm-.657-.985h.336c.233 0 .35-.094.35-.283.002-.039-.004-.077-.019-.113s-.038-.069-.067-.097a.392.392 0 0 0-.264-.076h-.34l.004.569zM12.079 20.876h-.819l-.145.376h-.431l.752-1.848h.466l.749 1.848h-.431l-.142-.376zm-.11-.283-.299-.789-.299.789h.598zM14.89 21.252h-.408l-.914-1.271v1.271h-.407v-1.869h.407l.914 1.278v-1.278h.408v1.869zM17.217 20.805a.852.852 0 0 1-.369.33 1.295 1.295 0 0 1-.573.118h-.726v-1.869h.726a1.32 1.32 0 0 1 .573.115.838.838 0 0 1 .369.326c.084.152.128.32.128.49s-.044.338-.128.49zm-.466-.045c.116-.124.18-.282.18-.446s-.064-.322-.18-.446a.753.753 0 0 0-.511-.159h-.283v1.21h.283a.75.75 0 0 0 .511-.159zM12.334 8.986s5.264 1.82 5.153 4.453v4.454s-5.261-1.821-5.151-4.454l-.002-4.453zM22.177 16.851a7.626 7.626 0 0 1 3.345-1.129v-1.394c-1.383.488-2.557 1.373-3.345 2.523z"/>
      <path d="M21.579 17.271c.814-1.5 2.225-2.658 3.942-3.235v-4.018s-7.497 2.592-7.339 6.342v6.341s.334-.116.86-.333c0-.203 0-.407.024-.613.155-1.741 1.059-3.354 2.513-4.485z"/>
      <path d="M20.866 19.627c.039-.44.127-.875.262-1.298-.905.977-1.454 2.189-1.568 3.465a5.465 5.465 0 0 0-.02.365c.426-.187.921-.421 1.442-.696a6.028 6.028 0 0 1-.117-1.836zM21.165 19.649a5.732 5.732 0 0 0 .093 1.663c2.048-1.122 4.35-2.856 4.261-4.952v-.183c-1.463.15-2.833.736-3.897 1.667a5.828 5.828 0 0 0-.457 1.804z"/>
    </symbol>
    <symbol id="icon-Logo-3" viewBox="0 0 32 32">
      <path d="M7.289 13.314h-.001c-.724 0-1.311.522-1.311 1.165v.001c0 .643.587 1.165 1.311 1.165h.001c.724 0 1.311-.522 1.311-1.165v-.001c0-.643-.587-1.165-1.311-1.165zM16.965 12.942c-.002-.894-.402-1.75-1.113-2.382s-1.675-.988-2.68-.99c-1.006.002-1.97.357-2.681.989s-1.112 1.489-1.114 2.383v4.928s7.587-.751 7.588-4.927v-.001zM3.321 19.487c.002.622.28 1.218.775 1.657s1.165.688 1.865.689c.699-.002 1.37-.25 1.864-.689s.773-1.035.775-1.657v-3.429s-5.28.523-5.28 3.428zm2.639.614c-.137 0-.27-.036-.384-.104s-.202-.163-.255-.276c-.052-.112-.066-.236-.039-.355s.093-.229.189-.315a.762.762 0 0 1 .753-.133c.126.047.234.125.31.226a.567.567 0 0 1 .065.577.605.605 0 0 1-.15.2c-.064.057-.141.103-.225.134s-.174.047-.265.047V20.1zM11.296 19.763h-.509v.526h-.265v-1.288h.838v.215h-.573v.333h.509v.214zm1.275-.089c0 .127-.022.238-.067.333a.508.508 0 0 1-.48.299.508.508 0 0 1-.481-.296.765.765 0 0 1-.07-.329v-.064c0-.127.023-.238.068-.334a.508.508 0 0 1 .481-.3c.108 0 .203.026.286.078.084.051.148.125.194.222s.069.207.069.333v.058zm-.269-.058c0-.135-.024-.238-.072-.308s-.117-.105-.207-.105c-.089 0-.158.035-.206.104s-.073.17-.073.304v.063c0 .131.024.233.072.306s.118.109.209.109c.089 0 .157-.035.205-.104s.072-.172.072-.306v-.063zm1.13.335c0-.05-.018-.088-.053-.115s-.099-.055-.191-.085a1.428 1.428 0 0 1-.218-.088c-.146-.079-.219-.185-.219-.319 0-.07.019-.131.058-.186s.096-.098.169-.128c.074-.031.156-.046.248-.046s.174.017.246.05a.377.377 0 0 1 .227.348h-.265c0-.059-.019-.105-.056-.137s-.089-.049-.157-.049c-.065 0-.115.014-.151.042s-.054.063-.054.108c0 .042.021.077.063.105s.105.055.187.08c.151.045.261.102.33.169s.104.151.104.251c0 .111-.042.199-.127.263s-.198.095-.341.095c-.099 0-.189-.018-.271-.054s-.144-.086-.187-.149a.386.386 0 0 1-.064-.219h.266c0 .142.085.213.255.213.063 0 .112-.013.148-.038s.053-.062.053-.108zm1.416-.735h-.394v1.073h-.265v-1.073H13.8v-.215h1.049v.215zm.927.515h-.509v.345h.598v.213h-.863v-1.288h.861v.215h-.596v.307h.509v.208zm.72.086h-.211v.471h-.265V19h.479c.152 0 .269.034.352.102s.124.164.124.287c0 .088-.019.161-.057.22s-.095.105-.172.14l.279.526v.012h-.285l-.241-.471zm-.211-.214h.214c.067 0 .118-.017.155-.05s.055-.081.055-.141c0-.061-.017-.108-.052-.143s-.087-.052-.158-.052h-.213v.387zm1.608.232v.454h-.265v-1.288h.502c.097 0 .182.018.255.053a.397.397 0 0 1 .229.373c0 .126-.043.226-.13.299s-.206.109-.358.109h-.233zm0-.215h.237c.07 0 .124-.017.16-.05s.056-.08.056-.142c0-.063-.019-.114-.056-.153s-.088-.059-.154-.06h-.243v.404zm1.679.111h-.509v.345h.598v.213h-.863v-1.288h.861v.215h-.596v.307h.509v.208zm1.231-.515h-.394v1.073h-.265v-1.073h-.389v-.215h1.049v.215zm.927.515h-.509v.345h.598v.213h-.863v-1.288h.861v.215h-.596v.307h.509v.208zm.721.086h-.211v.471h-.265V19h.478c.152 0 .269.034.352.102s.124.164.124.287c0 .088-.019.161-.057.22s-.095.105-.172.14l.279.526v.012h-.285l-.241-.471zm-.212-.214h.214c.067 0 .118-.017.155-.05s.055-.081.055-.141c0-.061-.017-.108-.052-.143s-.087-.052-.158-.052h-.213v.387zm1.559.348c0-.05-.018-.088-.053-.115s-.099-.055-.191-.085a1.428 1.428 0 0 1-.218-.088c-.146-.079-.219-.185-.219-.319 0-.07.019-.131.058-.186s.096-.098.169-.128c.074-.031.156-.046.248-.046s.174.017.246.05a.377.377 0 0 1 .227.348h-.265c0-.059-.019-.105-.056-.137s-.089-.049-.157-.049c-.065 0-.115.014-.151.042s-.054.063-.054.108c0 .042.021.077.063.105s.105.055.187.08c.151.045.261.102.33.169s.103.151.103.251c0 .111-.042.199-.126.263s-.198.095-.34.095c-.099 0-.189-.018-.271-.054s-.144-.086-.187-.149a.386.386 0 0 1-.064-.219h.266c0 .142.085.213.255.213.063 0 .112-.013.148-.038s.053-.062.053-.108z"/>
    </symbol>
    <symbol id="icon-Logo-2" viewBox="0 0 32 32">
      <path d="M10.991 21.766c.005 0 .01.001.014.003l.012.007.066.063a.526.526 0 0 1-.185.119.73.73 0 0 1-.263.043.685.685 0 0 1-.247-.04.503.503 0 0 1-.306-.288.578.578 0 0 1-.042-.224.527.527 0 0 1 .371-.514.776.776 0 0 1 .254-.04.694.694 0 0 1 .236.036.657.657 0 0 1 .177.101l-.055.067a.053.053 0 0 1-.014.012c-.007.004-.014.006-.022.005s-.017-.003-.024-.007l-.03-.018-.041-.023c-.018-.008-.036-.016-.055-.022a.532.532 0 0 0-.173-.025.513.513 0 0 0-.183.03.39.39 0 0 0-.236.218.453.453 0 0 0-.034.177.45.45 0 0 0 .034.18.373.373 0 0 0 .228.217.51.51 0 0 0 .17.029.663.663 0 0 0 .1-.006.398.398 0 0 0 .217-.092.049.049 0 0 1 .031-.011zM12.892 21.45a.55.55 0 0 1-.044.222c-.027.064-.069.123-.124.173s-.121.088-.195.113a.806.806 0 0 1-.5 0 .574.574 0 0 1-.193-.114.514.514 0 0 1-.125-.174.584.584 0 0 1 0-.446.522.522 0 0 1 .125-.175.565.565 0 0 1 .193-.109.792.792 0 0 1 .5 0c.073.026.139.064.194.114a.504.504 0 0 1 .168.396zm-.173 0a.479.479 0 0 0-.031-.179.363.363 0 0 0-.227-.218.58.58 0 0 0-.364 0 .37.37 0 0 0-.228.218.524.524 0 0 0 0 .358.379.379 0 0 0 .228.218.595.595 0 0 0 .364 0 .368.368 0 0 0 .227-.218.46.46 0 0 0 .031-.179zM14.189 21.638l.017.04.019-.04c.007-.013.013-.027.021-.039l.421-.664c.008-.011.016-.019.024-.021a.134.134 0 0 1 .035-.004h.124v1.081h-.147V21.126l-.423.674c-.005.01-.014.019-.025.025s-.023.009-.036.009h-.024c-.013 0-.025-.003-.036-.009s-.019-.015-.025-.025l-.435-.678v.867h-.142v-1.078h.124a.105.105 0 0 1 .035.004c.01.004.018.012.023.021l.43.665a.183.183 0 0 1 .021.039zM15.772 21.584v.405h-.165V20.91h.367a.787.787 0 0 1 .205.024.41.41 0 0 1 .145.067.263.263 0 0 1 .082.106.331.331 0 0 1 .028.138.305.305 0 0 1-.119.246.434.434 0 0 1-.146.072.694.694 0 0 1-.198.025l-.199-.003zm0-.116h.199a.505.505 0 0 0 .128-.016.276.276 0 0 0 .092-.047.208.208 0 0 0 .076-.163c.002-.03-.004-.06-.017-.088s-.032-.053-.058-.074a.354.354 0 0 0-.221-.058h-.199v.445zM17.984 21.99h-.13a.063.063 0 0 1-.036-.01.063.063 0 0 1-.021-.025l-.112-.261h-.562l-.116.261a.049.049 0 0 1-.021.024.067.067 0 0 1-.037.011h-.13l.494-1.081h.171l.5 1.081zm-.815-.401h.464l-.196-.44a.73.73 0 0 1-.037-.102l-.019.056a.556.556 0 0 1-.018.046l-.194.439zM18.695 20.915c.01.005.018.011.025.019l.72.815v-.839h.147v1.081h-.082c-.012 0-.023-.002-.034-.006s-.019-.012-.026-.02l-.719-.814V21.991h-.147V20.91h.087c.01 0 .02.001.03.005zM20.801 21.56v.429h-.165v-.429l-.455-.651h.147a.06.06 0 0 1 .035.009.1.1 0 0 1 .022.024l.285.42c.012.018.021.034.03.05s.015.031.021.046l.021-.047a.343.343 0 0 1 .028-.049l.281-.423a.15.15 0 0 1 .021-.023.06.06 0 0 1 .035-.011h.149l-.456.654zM14.108 19.096c.072.008.144.014.217.02 1.111-.432 2.05-1.138 2.701-2.031s.985-1.933.959-2.99l-1.224-1.063c.249 1.125.132 2.288-.336 3.359s-1.271 2.008-2.317 2.705z"/>
      <path d="m13.671 19.047.033.006c1.118-.695 1.971-1.665 2.447-2.786s.555-2.339.226-3.499l-1.743-1.515c.705 1.245.989 2.638.818 4.018s-.788 2.689-1.781 3.775zM19.583 15.344c-.296 1.161-1.016 2.209-2.051 2.986a6.541 6.541 0 0 1-.975.608c.843-.215 1.618-.596 2.266-1.113s1.149-1.156 1.467-1.868l-.707-.614z"/>
      <path d="m19.305 15.173-1.007-.875c-.019.997-.346 1.972-.945 2.822s-1.45 1.546-2.463 2.014h.005c.226 0 .451-.012.676-.035.947-.336 1.784-.87 2.435-1.555s1.098-1.5 1.299-2.371zM13.816 10.615 12.615 9.57c-1.074.36-1.997.994-2.649 1.818s-1.003 1.8-1.006 2.8c.004 1.105.432 2.177 1.216 3.047s1.88 1.487 3.114 1.755c1.101-1.166 1.746-2.607 1.841-4.113s-.366-2.999-1.315-4.262zM22.08 15.012c-.004-1.311-.606-2.567-1.673-3.494s-2.513-1.449-4.022-1.453a6.372 6.372 0 0 0-2.039.33l7.353 6.388a4.32 4.32 0 0 0 .38-1.771z"/>
    </symbol>
    <symbol id="icon-Logo-1" viewBox="0 0 32 32">
      <path d="M15.129 8.735h-.041c-.063-.004-.127-.005-.19-.007h-.137a7.43 7.43 0 0 0-.391.009 8.526 8.526 0 0 0-3.175.81l-.131.063v6.684l.305-.104c.268-.092.554-.175.849-.252a10.389 10.389 0 0 1 2.444-.325v.878a8.532 8.532 0 0 0-.322.009h-.025a9.713 9.713 0 0 0-1.88.289 9.547 9.547 0 0 0-2.24.873V9.089a9.015 9.015 0 0 1 2.35-.956 9.001 9.001 0 0 1 2.215-.286h.129c.154.004.305.011.446.021.372.026.741.085 1.104.176v.864a6.78 6.78 0 0 0-1.069-.161l-.022-.002c-.075-.006-.149-.013-.219-.013zm1.521.884c.192.015.39.021.591.021a9.478 9.478 0 0 0 2.328-.299 9.586 9.586 0 0 0 2.239-.874v8.42a9.008 9.008 0 0 1-2.351.956 9.048 9.048 0 0 1-2.215.285 6.749 6.749 0 0 1-1.68-.198V9.456a6.862 6.862 0 0 0 1.086.163zm4.285.065-.305.103c-.281.094-.564.179-.849.254-.829.213-1.682.322-2.538.325-.199 0-.383-.005-.56-.017l-.244-.016v6.876l.209.018c.194.017.394.025.596.025a8.126 8.126 0 0 0 1.999-.259 8.41 8.41 0 0 0 1.562-.561l.131-.063V9.683zM10.789 20.592a.453.453 0 0 0-.339-.137.506.506 0 0 0-.196.037c-.057.023-.109.057-.153.101s-.077.096-.098.154a.493.493 0 0 0-.035.19v1.145a.541.541 0 0 0 .045.235.458.458 0 0 0 .115.154.4.4 0 0 0 .157.081.62.62 0 0 0 .171.024.489.489 0 0 0 .475-.483v-.128h-.299v.102a.253.253 0 0 1-.018.102.188.188 0 0 1-.044.064.22.22 0 0 1-.126.044.153.153 0 0 1-.141-.062.275.275 0 0 1-.04-.154v-1.068a.362.362 0 0 1 .037-.171c.016-.024.038-.043.063-.056s.055-.017.083-.013c.026-.001.051.004.075.016s.043.028.059.049a.243.243 0 0 1 .05.154v.099h.296v-.117a.522.522 0 0 0-.137-.361zM12.567 20.579a.532.532 0 0 0-.52-.094.47.47 0 0 0-.274.254.547.547 0 0 0-.044.222v1.099a.46.46 0 0 0 .16.379.478.478 0 0 0 .337.129.524.524 0 0 0 .341-.129.456.456 0 0 0 .113-.154.529.529 0 0 0 .044-.225v-1.099a.53.53 0 0 0-.044-.222.49.49 0 0 0-.113-.16zm-.14 1.481c.002.029-.002.059-.012.086s-.027.052-.048.073a.22.22 0 0 1-.282 0 .202.202 0 0 1-.06-.159v-1.099a.194.194 0 0 1 .06-.159.22.22 0 0 1 .282 0 .202.202 0 0 1 .06.159v1.099zM14.903 22.551v-2.08h-.288l-.378 1.101h-.005l-.381-1.101h-.285v2.08h.297v-1.265h.005l.291.894h.148l.293-.894h.005v1.265h.297zM16.591 20.617a.43.43 0 0 0-.168-.114.63.63 0 0 0-.215-.032h-.441v2.08h.296v-.812h.153a.539.539 0 0 0 .267-.057.429.429 0 0 0 .163-.159.51.51 0 0 0 .068-.181c.012-.078.017-.157.016-.236.003-.1-.007-.2-.029-.297a.44.44 0 0 0-.109-.191zm-.153.634a.265.265 0 0 1-.027.108.168.168 0 0 1-.076.073.294.294 0 0 1-.14.026h-.135v-.707h.153a.295.295 0 0 1 .134.026.169.169 0 0 1 .07.077.31.31 0 0 1 .026.116v.138c0 .048.003.098 0 .143h-.003zM17.995 20.471h-.243l-.458 2.08h.296l.087-.447h.404l.087.447h.296l-.47-2.08zm-.274 1.35.146-.754h.005l.145.754h-.296zM19.909 21.724h-.005l-.448-1.253h-.285v2.08h.296V21.3h.006l.453 1.251h.279v-2.08h-.296v1.253zM21.72 20.471l-.238.827h-.006l-.238-.827h-.314l.407 1.201v.879h.296v-.879l.407-1.201h-.314zM9.962 23.138h.143v.401h.097v-.401h.142v-.082h-.382v.082zM11.163 23.056l-.187.483h.103l.04-.11h.192l.041.11h.105l-.192-.483h-.103zm-.015.292.066-.179.066.179h-.131zM12.35 23.361h.112v.062a.192.192 0 0 1-.115.041.126.126 0 0 1-.103-.047.202.202 0 0 1-.036-.126c0-.107.047-.161.139-.161a.102.102 0 0 1 .109.077l.095-.018c-.021-.094-.089-.142-.205-.142a.246.246 0 0 0-.169.062.24.24 0 0 0-.069.186.26.26 0 0 0 .062.181.226.226 0 0 0 .183.071.288.288 0 0 0 .205-.077v-.19h-.209v.081zM13.562 23.056h-.098v.483h.338v-.082h-.241v-.401zM14.586 23.056h-.098v.483h.098v-.483zM15.588 23.378l-.198-.322h-.095v.483h.091v-.316l.194.316h.097v-.483h-.089v.322zM16.494 23.326h.241v-.082h-.241v-.106h.259v-.082h-.357v.483h.367v-.082h-.269v-.131zM18.69 23.246h-.19v-.19h-.097v.483h.097v-.211h.19v.211h.097v-.483h-.097v.19zM19.602 23.326h.241v-.082h-.241v-.106h.26v-.082h-.357v.483h.366v-.082h-.269v-.131zM20.837 23.326c.084-.013.127-.058.127-.134a.117.117 0 0 0-.047-.107.267.267 0 0 0-.141-.028h-.205v.483h.097v-.202h.019a.124.124 0 0 1 .06.011.103.103 0 0 1 .034.035l.105.154h.116l-.059-.094a.34.34 0 0 0-.107-.116zm-.098-.067h-.072v-.121h.076a.24.24 0 0 1 .099.012c.007.006.013.014.016.023s.005.018.005.028a.061.061 0 0 1-.025.048.275.275 0 0 1-.099.012zM21.769 23.326h.241v-.082h-.241v-.106h.26v-.082h-.357v.483h.367v-.082h-.269v-.131z"/>
    </symbol>
    <symbol id="icon-Logo" viewBox="0 0 32 32">
      <path d="m11.472 9.057 2.116 2.003-3.927-.002v9.717h10.264V17.06l2.113 2.001V9.058H11.472zm8.36 7.767-5.998-5.679h5.998v5.679zm-1.863 2.529h-6.685v-6.535h.473v6.093h6.212v.442zm-5.106 2.715-.247.509-.247-.509h-.207l.36.678v.395h.187v-.395l.36-.678h-.206zm.31 1.073.087-.25h.416l.088.25h.195l-.406-1.073h-.167l-.405 1.073h.194zm.295-.846.155.445h-.311l.156-.445zm.983.42a.282.282 0 0 0 .054.356c.063.056.149.084.255.084s.198-.029.274-.086l.06.072h.208l-.158-.186a.535.535 0 0 0 .093-.325h-.155a.43.43 0 0 1-.045.197l-.207-.245.073-.053c.052-.037.089-.075.111-.112s.034-.079.034-.124c0-.068-.025-.125-.075-.17s-.114-.069-.192-.069c-.086 0-.155.025-.206.074s-.077.115-.077.199c0 .034.008.07.024.107s.046.082.088.134a.62.62 0 0 0-.16.148zm.485.237a.275.275 0 0 1-.169.06c-.054 0-.096-.015-.128-.046s-.048-.071-.048-.121c0-.057.03-.109.088-.153l.023-.016.234.276zm-.193-.475c-.051-.062-.076-.114-.076-.155 0-.036.01-.066.031-.089s.048-.035.083-.035c.032 0 .059.01.08.03s.032.043.032.072a.132.132 0 0 1-.046.104l-.023.018-.082.056zm1.747.583a.388.388 0 0 0 .127-.268h-.186c-.01.077-.033.131-.07.164s-.092.049-.165.049c-.08 0-.141-.03-.183-.091s-.062-.149-.062-.265v-.095c.001-.114.023-.201.066-.26s.106-.089.187-.089c.07 0 .123.017.158.052s.059.089.068.167h.186c-.012-.117-.054-.208-.126-.273s-.168-.097-.286-.097a.407.407 0 0 0-.387.241.625.625 0 0 0-.054.268v.1c.001.099.02.185.055.26s.085.132.15.173c.065.04.141.06.226.06.122 0 .22-.032.294-.096zm1.096-.151a.668.668 0 0 0 .055-.277v-.06c0-.105-.019-.196-.056-.275s-.089-.14-.157-.181c-.067-.042-.145-.063-.232-.063s-.165.021-.233.064c-.067.042-.12.103-.157.184s-.055.172-.055.277v.06c0 .103.019.193.056.272s.09.139.158.182c.068.042.146.063.233.063s.166-.021.233-.063a.413.413 0 0 0 .156-.183zm-.2-.606a.468.468 0 0 1 .068.273v.056c0 .121-.022.213-.067.276s-.108.094-.19.094-.145-.032-.192-.097-.069-.155-.069-.273v-.062c.001-.115.024-.205.069-.268s.109-.095.189-.095a.22.22 0 0 1 .191.095z"/>
    </symbol>
    <symbol id="icon-linkedin-1" viewBox="0 0 32 32">
      <path d="M31.992 32v-.001H32V20.263c0-5.741-1.236-10.164-7.948-10.164-3.227 0-5.392 1.771-6.276 3.449h-.093v-2.913h-6.364v21.364h6.627V21.42c0-2.785.528-5.479 3.977-5.479 3.399 0 3.449 3.179 3.449 5.657v10.401h6.62zM.528 10.636h6.635V32H.528V10.636zM3.843 0C1.722 0 0 1.721 0 3.843s1.721 3.879 3.843 3.879c2.121 0 3.843-1.757 3.843-3.879A3.846 3.846 0 0 0 3.843 0z"/>
    </symbol>
    <symbol id="icon-facebook-1" viewBox="0 0 32 32">
      <path d="M21.329 5.313h2.921V.225C23.746.156 22.013 0 19.994 0c-4.212 0-7.097 2.649-7.097 7.519V12H8.249v5.688h4.648V32h5.699V17.689h4.46l.708-5.688h-5.169V8.082c.001-1.644.444-2.769 2.735-2.769z"/>
    </symbol>
    <symbol id="icon-twitter-1" viewBox="0 0 32 32">
      <path d="M32 6.078c-1.19.522-2.458.868-3.78 1.036a6.523 6.523 0 0 0 2.886-3.626 13.11 13.11 0 0 1-4.16 1.588A6.574 6.574 0 0 0 22.154 3c-3.632 0-6.556 2.948-6.556 6.562 0 .52.044 1.02.152 1.496-5.454-.266-10.28-2.88-13.522-6.862a6.605 6.605 0 0 0-.898 3.316 6.57 6.57 0 0 0 2.914 5.452 6.479 6.479 0 0 1-2.964-.808v.072c0 3.188 2.274 5.836 5.256 6.446a6.548 6.548 0 0 1-1.72.216 5.8 5.8 0 0 1-1.242-.112c.85 2.598 3.262 4.508 6.13 4.57a13.182 13.182 0 0 1-8.134 2.798c-.538 0-1.054-.024-1.57-.09A18.469 18.469 0 0 0 10.064 29c12.072 0 18.672-10 18.672-18.668 0-.29-.01-.57-.024-.848A13.087 13.087 0 0 0 32 6.078z"/>
    </symbol>
    <symbol id="icon-instagram-2" viewBox="0 0 32 32">
      <path d="M31.969 9.408c-.075-1.7-.35-2.869-.744-3.882a7.806 7.806 0 0 0-1.851-2.838A7.867 7.867 0 0 0 26.542.844C25.523.45 24.36.175 22.66.1 20.947.019 20.403 0 16.059 0s-4.888.019-6.595.094c-1.7.075-2.869.35-3.882.744a7.803 7.803 0 0 0-2.838 1.85A7.867 7.867 0 0 0 .9 5.52C.506 6.539.231 7.702.156 9.402c-.081 1.713-.1 2.257-.1 6.601s.019 4.888.094 6.595c.075 1.7.35 2.869.744 3.882a7.895 7.895 0 0 0 1.85 2.838 7.867 7.867 0 0 0 2.832 1.844c1.019.394 2.182.669 3.882.744 1.706.075 2.25.094 6.595.094s4.888-.019 6.595-.094c1.7-.075 2.869-.35 3.882-.744a8.184 8.184 0 0 0 4.682-4.682c.394-1.019.669-2.182.744-3.882.075-1.707.094-2.251.094-6.595s-.006-4.888-.081-6.595zm-2.882 13.065c-.069 1.563-.331 2.407-.55 2.969a5.31 5.31 0 0 1-3.038 3.038c-.563.219-1.413.481-2.969.55-1.688.075-2.194.094-6.464.094s-4.782-.019-6.464-.094c-1.563-.069-2.407-.331-2.969-.55a4.926 4.926 0 0 1-1.838-1.194 4.974 4.974 0 0 1-1.194-1.838c-.219-.563-.481-1.413-.55-2.969-.075-1.688-.094-2.194-.094-6.464s.019-4.782.094-6.464c.069-1.563.331-2.407.55-2.969a4.868 4.868 0 0 1 1.2-1.838A4.974 4.974 0 0 1 6.639 3.55c.563-.219 1.413-.481 2.969-.55 1.688-.075 2.194-.094 6.464-.094 4.276 0 4.782.019 6.464.094 1.563.069 2.407.331 2.969.55a4.914 4.914 0 0 1 1.838 1.194 4.974 4.974 0 0 1 1.194 1.838c.219.563.481 1.413.55 2.969.075 1.688.094 2.194.094 6.464s-.019 4.77-.094 6.458z"/>
      <path d="M16.059 7.783c-4.538 0-8.22 3.682-8.22 8.22s3.682 8.22 8.22 8.22c4.539 0 8.22-3.682 8.22-8.22s-3.682-8.22-8.22-8.22zm0 13.552a5.333 5.333 0 0 1 0-10.664 5.333 5.333 0 0 1 0 10.664zM26.524 7.458a1.919 1.919 0 1 1-3.838 0 1.919 1.919 0 0 1 3.838 0z"/>
    </symbol>
    <symbol id="icon-astronaut" viewBox="0 0 32 32">
      <path fill="#2196f3" style="fill:var(--color1, #2196f3)" d="M31.974 4.524a.534.534 0 0 0-.43-.363l-1.91-.278-.855-1.731c-.179-.365-.777-.365-.956 0l-.855 1.731-1.91.278a.535.535 0 0 0-.296.91l1.383 1.348-.326 1.903c-.034.2.048.402.212.522a.53.53 0 0 0 .562.04l1.709-.899 1.709.899a.536.536 0 0 0 .775-.563l-.326-1.903 1.383-1.348a.536.536 0 0 0 .135-.547zm-2.463 1.327a.534.534 0 0 0-.153.472l.191 1.114-1-.526a.533.533 0 0 0-.498 0l-1.001.526.191-1.114a.534.534 0 0 0-.153-.472l-.81-.789 1.119-.163a.532.532 0 0 0 .402-.292l.5-1.013.5 1.013a.535.535 0 0 0 .402.292l1.119.163-.809.789zM26.134 20.522h-1.067v1.067h1.067v-1.067zM26.134 22.656h-1.067v1.067h1.067v-1.067zM27.2 21.589h-1.067v1.067H27.2v-1.067zM25.067 21.589H24v1.067h1.067v-1.067zM22.4 26.389h-1.067v1.067H22.4v-1.067zM22.4 28.522h-1.067v1.067H22.4v-1.067zM23.467 27.456H22.4v1.067h1.067v-1.067zM21.333 27.456h-1.067v1.067h1.067v-1.067zM16 24.256h-1.067v1.067H16v-1.067zM16 26.389h-1.067v1.067H16v-1.067zM17.067 25.322H16v1.067h1.067v-1.067zM14.933 25.322h-1.067v1.067h1.067v-1.067zM5.867 6.122H4.8v1.067h1.067V6.122zM5.867 8.255H4.8v1.067h1.067V8.255z"/>
      <path fill="#2196f3" style="fill:var(--color1, #2196f3)" d="M6.933 7.189H5.866v1.067h1.067V7.189zM4.8 7.189H3.733v1.067H4.8V7.189z"/>
      <path fill="#212121" style="fill:var(--color2, #212121)" d="M24.715 14.159a1.775 1.775 0 0 0-1.188-.705 1.778 1.778 0 0 0-1.34.352l-1.252.96-1.898 1.417-1.358-.541c2.421-1.086 4.114-3.508 4.114-6.32 0-3.823-3.123-6.933-6.961-6.933s-6.961 3.11-6.961 6.933a6.86 6.86 0 0 0 1.12 3.758l-2.764-.024h-.005c-.009 0-.015.004-.023.005a.515.515 0 0 0-.155.031l-.038.013c-.006.003-.013.003-.019.006l-3.233 1.596-.001.001-1.893.911a.397.397 0 0 0-.063.035 1.779 1.779 0 0 0-.598 2.295c.22.429.595.745 1.056.889a1.776 1.776 0 0 0 1.378-.128l1.388-.738 2.264-1.169 1.357-.008L2.2 22.211l-.002.001-1.339 1.333c-.316.315-.49.732-.49 1.178s.174.863.49 1.179c.325.323.752.485 1.179.485s.854-.162 1.18-.485l1.314-1.309 1.741-1.3.901.897-1.762 1.754-.002.001-1.339 1.333c-.316.315-.49.732-.49 1.178s.174.863.49 1.179c.325.323.753.485 1.18.485s.855-.162 1.18-.485l3.482-3.467.001-.002 1.01-1-.004-.004c.006-.006.015-.009.022-.015l5.166-5.658 3.471.494a.52.52 0 0 0 .262-.033c.018-.006.033-.015.05-.023.019-.01.039-.015.058-.027l3.213-2.133c.012-.008.018-.021.029-.029.013-.01.029-.014.041-.026l1.271-1.191c.662-.62.753-1.635.212-2.362zM2.13 17.77a.714.714 0 0 1-.558.052.717.717 0 0 1-.213-1.26l1.314-.632.449 1.312-.992.528zm3.498-1.828-1.548.8-.439-1.283 2.027-1.001-.04 1.484zm15.099-6.62a5.79 5.79 0 0 1-.599 2.559l-4.181-1.899a1.863 1.863 0 0 0-.788-1.388l1.464-4.86c2.378.756 4.105 2.974 4.105 5.588zm-11.789 0c0-3.235 2.644-5.867 5.894-5.867.253 0 .5.021.745.052l-1.432 4.754c-.019-.001-.037-.006-.057-.006-1.033 0-1.873.837-1.873 1.867s.84 1.867 1.873 1.867c.694 0 1.294-.383 1.618-.945l3.862 1.755a5.894 5.894 0 0 1-4.737 2.39c-3.25 0-5.894-2.632-5.894-5.867zm5.956.8c0 .441-.362.8-.806.8s-.806-.359-.806-.8c0-.441.362-.8.806-.8s.806.359.806.8zM2.465 25.146a.608.608 0 0 1-.854.001.592.592 0 0 1 0-.844l.962-.958.851.848-.959.955zm3.214 3.734a.608.608 0 0 1-.855.001.592.592 0 0 1 0-.844l.963-.959.852.848-.96.955zm3.481-3.469-.002.001-1.765 1.76-.852-.848 1.763-1.755.002-.001c.04-.04.065-.088.09-.135.007-.014.02-.026.026-.04.017-.041.019-.085.026-.129.003-.025.014-.047.014-.073 0-.036-.013-.07-.02-.106-.006-.032-.006-.065-.019-.095a.55.55 0 0 0-.091-.138c-.01-.012-.014-.027-.025-.038h-.001l-.001-.002-1.607-1.6c-.017-.017-.039-.024-.058-.038a.507.507 0 0 0-.087-.058.515.515 0 0 0-.093-.033.507.507 0 0 0-.103-.02.5.5 0 0 0-.095.005.53.53 0 0 0-.104.02.477.477 0 0 0-.094.045c-.02.011-.042.015-.061.029L4.23 23.486l-.901-.897 2.399-2.386 4.361 4.289-.928.919zm6.819-7.017c-.015-.002-.03.004-.045.003a.556.556 0 0 0-.3.075.492.492 0 0 0-.083.061c-.013.011-.028.017-.04.029l-4.698 5.146-4.328-4.257 2.833-2.818a.534.534 0 0 0-.379-.911v-.001l-2.219.013.028-1.607 3.104.027a6.947 6.947 0 0 0 4.981 2.101c.437 0 .864-.045 1.279-.123.04.032.079.065.13.085l2.41.96.331 1.644-3.003-.427zm4.041.178-.313-1.558 1.446-1.08.947 1.257-2.08 1.381zm3.754-2.831-.838.785-.931-1.236.831-.637a.735.735 0 0 1 .543-.143.718.718 0 0 1 .48.284.713.713 0 0 1-.085.947z"/>
      <path fill="#212121" style="fill:var(--color2, #212121)" d="m13.602 18.544-2.143-2.133a.534.534 0 0 0-.753 0l-2.142 2.133a.537.537 0 0 0 0 .756l2.142 2.133a.536.536 0 0 0 .753 0l2.143-2.133a.535.535 0 0 0 0-.756zm-2.519 1.759-1.387-1.381 1.387-1.381 1.387 1.381-1.387 1.381zM17.164 5.071l-.258 1.036c.071.018 1.738.452 1.738 2.149h1.067c0-2.017-1.666-2.965-2.547-3.185zM19.711 9.322h-1.067v1.067h1.067V9.322z"/>
    </symbol>
    <symbol id="icon-diagram" viewBox="0 0 32 32">
      <path fill="#2196f3" style="fill:var(--color1, #2196f3)" d="M14.926 14.965h1.066v4.798h-1.066v-4.797zM19.19 17.097h1.066v2.665H19.19v-2.665zM10.661 18.696h1.066v1.066h-1.066v-1.066zM7.463 18.163h1.066v1.599H7.463v-1.599z"/>
      <path fill="#212121" style="fill:var(--color2, #212121)" d="M1.599 28.291h25.587a1.6 1.6 0 0 0 1.599-1.599V24.56a1.6 1.6 0 0 0-1.599-1.599h-.533V9.668L29.681 6.8a1.608 1.608 0 1 0-.746-.763L26.654 8.2V6.97a1.6 1.6 0 0 0-1.599-1.599H3.733A1.6 1.6 0 0 0 2.134 6.97v15.992h-.533a1.6 1.6 0 0 0-1.599 1.599v2.132a1.6 1.6 0 0 0 1.599 1.599zM30.384 4.837a.533.533 0 1 1 0 1.067.533.533 0 0 1 0-1.067zM3.198 6.969c0-.294.239-.533.533-.533h21.322c.294 0 .533.239.533.533v2.239l-1.066 1.013V8.035a.533.533 0 0 0-.533-.533H4.797a.533.533 0 0 0-.533.533v13.326c0 .294.239.533.533.533h19.19a.533.533 0 0 0 .533-.533v-9.674l1.066-1.01v12.284H3.198V6.969zm4.798 6.93a1.598 1.598 0 1 0 1.107 2.749l1.853.93a.532.532 0 0 0 .636-.123l3.939-4.431 3.872 2.901a.533.533 0 0 0 .686-.039l3.365-3.188v8.131H5.33V8.569h18.124v2.66l-3.771 3.572-3.904-2.927a.533.533 0 0 0-.718.072l-3.993 4.493-1.493-.746c.011-.064.018-.129.02-.193a1.6 1.6 0 0 0-1.599-1.599zm.533 1.599a.533.533 0 1 1-1.067 0 .533.533 0 0 1 1.067 0zm3.198 8.529h5.331v.533a.533.533 0 0 1-.533.533h-4.264a.533.533 0 0 1-.533-.533v-.533zm-10.661.533c0-.294.239-.533.533-.533h9.062v.533a1.6 1.6 0 0 0 1.599 1.599h4.264a1.6 1.6 0 0 0 1.599-1.599v-.533h9.062c.294 0 .533.239.533.533v2.132a.533.533 0 0 1-.533.533H1.598a.533.533 0 0 1-.533-.533V24.56z"/>
    </symbol>
    <symbol id="icon-antenna" viewBox="0 0 32 32">
      <path fill="#212121" style="fill:var(--color2, #212121)" d="m30.773 22.098-8.443-8.505.937-4.615c.242.094.499.144.758.146h.006a2.159 2.159 0 1 0-2.008-1.435l-4.96.605L8.972.161a.534.534 0 0 0-.377-.16.532.532 0 0 0-.373.155L6.709 1.66a.534.534 0 0 0 0 .754l.814.826a14.943 14.943 0 0 0 2.519 17.663.513.513 0 0 0 .146.098c-.034.18-.051.364-.052.547v6.187h-6.4a2.67 2.67 0 0 0-2.667 2.667v1.067c0 .295.239.533.533.533h24.533a.533.533 0 0 0 .533-.533v-1.067a2.67 2.67 0 0 0-2.667-2.667h-6.4v-2.742a15.09 15.09 0 0 0 3.049.32 14.854 14.854 0 0 0 7.04-1.783l.818.823a.534.534 0 0 0 .377.16.532.532 0 0 0 .373-.155l1.513-1.504a.534.534 0 0 0 0-.754zM23.28 6.233a1.066 1.066 0 1 1 .752 1.822h-.003a1.067 1.067 0 0 1-.747-1.823h-.002zm-1.256 3.505-.598 2.946-1.175-1.182 1.774-1.763zm-.605-.902-1.92 1.909-1.485-1.493 3.405-.415zM24.004 28.8a1.6 1.6 0 0 1 1.6 1.6v.533H2.137V30.4a1.6 1.6 0 0 1 1.6-1.6h20.267zm-7.467-2.133v1.067h-5.333v-1.067h5.333zM11.204 25.6v-4.053c0-1.294 1.196-2.347 2.667-2.347s2.667 1.053 2.667 2.347V25.6h-5.333zm6.4-1.696v-2.357c0-1.882-1.675-3.413-3.733-3.413a3.8 3.8 0 0 0-3.281 1.786A13.87 13.87 0 0 1 8.311 4.033l18.602 18.708a13.818 13.818 0 0 1-9.309 1.163zm11.289-.684L7.836 2.039l.755-.752 7.935 7.98c.004 0 .006.007.01.01l13.115 13.191-.757.752z"/>
      <path fill="#2196f3" style="fill:var(--color1, #2196f3)" d="M13.876 20.267h-.005a1.6 1.6 0 1 0-.004 3.2h.005a1.6 1.6 0 1 0 .004-3.2zm.373 1.978a.534.534 0 0 1-.752-.756.534.534 0 0 1 .373-.155.532.532 0 0 1 .373.911h.005z"/>
    </symbol>
    <symbol id="icon-clock" viewBox="0 0 32 32">
      <path fill="#212121" style="fill:var(--color2, #212121)" d="M31.297 15.301C31.295 6.849 24.442-.002 15.989 0S.686 6.855.688 15.308a15.304 15.304 0 0 0 10.649 14.576.662.662 0 0 0 .529-.065.637.637 0 0 0 .283-.356l3.865-12.25a1.912 1.912 0 1 0-.84-3.635l-5.106-5.107a.637.637 0 0 0-.902.902l5.103 5.109a1.876 1.876 0 0 0 .536 2.309l-3.683 11.673C3.844 25.783.118 17.71 2.799 10.432S13.553-.572 20.831 2.109s11.004 10.754 8.323 18.032a14.042 14.042 0 0 1-7.462 7.973l-.398-1.874a.638.638 0 0 0-1.048-.344l-3.837 3.426a.637.637 0 0 0 .231 1.084l4.899 1.563a.638.638 0 0 0 .819-.74l-.391-1.839a15.255 15.255 0 0 0 9.329-14.089zm-15.305-.637a.638.638 0 1 1 0 1.277.638.638 0 0 1 0-1.277zm2.101 14.864 2.184-1.948.603 2.84-2.787-.892z"/>
      <path fill="#2196f3" style="fill:var(--color1, #2196f3)" d="M15.354 3.185V4.46a.638.638 0 1 0 1.276 0V3.185a.638.638 0 0 0-1.276 0zM3.876 14.664a.638.638 0 0 0 0 1.276h1.275a.638.638 0 1 0 0-1.276H3.876zM28.108 15.939a.638.638 0 1 0 0-1.276h-1.275a.638.638 0 0 0 0 1.276h1.275z"/>
    </symbol>
    <symbol id="icon-Group" viewBox="0 0 30 32">
      <path d="m29.859 22.098-8.443-8.505.937-4.615c.242.094.499.144.758.146h.006a2.159 2.159 0 1 0-2.008-1.435l-4.96.605L8.058.161a.534.534 0 0 0-.377-.16.532.532 0 0 0-.373.155L5.795 1.66a.534.534 0 0 0 0 .754l.814.826a14.943 14.943 0 0 0 2.519 17.663.513.513 0 0 0 .146.098c-.034.18-.051.364-.052.547v6.187h-6.4a2.67 2.67 0 0 0-2.667 2.667v1.067c0 .295.239.533.533.533h24.533a.533.533 0 0 0 .533-.533v-1.067a2.67 2.67 0 0 0-2.667-2.667h-6.4v-2.742a15.09 15.09 0 0 0 3.049.32 14.854 14.854 0 0 0 7.04-1.783l.818.823a.534.534 0 0 0 .377.16.532.532 0 0 0 .373-.155l1.513-1.504a.534.534 0 0 0 0-.754zM22.366 6.233a1.066 1.066 0 1 1 .752 1.822h-.003a1.067 1.067 0 0 1-.747-1.823h-.002zM21.11 9.738l-.598 2.946-1.175-1.182 1.774-1.763zm-.606-.902-1.92 1.909-1.485-1.493 3.405-.415zM23.09 28.8a1.6 1.6 0 0 1 1.6 1.6v.533H1.223V30.4a1.6 1.6 0 0 1 1.6-1.6H23.09zm-7.467-2.133v1.067H10.29v-1.067h5.333zM10.29 25.6v-4.053c0-1.294 1.196-2.347 2.667-2.347s2.667 1.053 2.667 2.347V25.6h-5.333zm6.4-1.696v-2.357c0-1.882-1.675-3.413-3.733-3.413a3.8 3.8 0 0 0-3.281 1.786A13.87 13.87 0 0 1 7.397 4.033l18.602 18.708a13.818 13.818 0 0 1-9.309 1.163zm11.289-.684L6.922 2.039l.755-.752 7.935 7.98c.004 0 .006.007.01.01l13.115 13.191-.757.752z"/>
      <path d="M12.961 20.267h-.005a1.6 1.6 0 1 0-.004 3.2h.005a1.6 1.6 0 1 0 .004-3.2zm.374 1.978a.534.534 0 0 1-.752-.756.534.534 0 0 1 .373-.155.532.532 0 0 1 .373.911h.005z"/>
    </symbol>
    <symbol id="icon-smartphone" viewBox="0 0 32 32">
      <path d="M23 0H9C7.346 0 6 1.346 6 3v26c0 1.654 1.346 3 3 3h14c1.654 0 3-1.346 3-3V3c0-1.654-1.346-3-3-3zM9 2h14a1 1 0 0 1 1 1v21H8V3a1 1 0 0 1 1-1zm14 28H9a1 1 0 0 1-1-1v-3h16v3a1 1 0 0 1-1 1z"/>
      <path d="M10.707 27.478c.391.365.391.956 0 1.321s-1.024.365-1.414 0c-.391-.365-.391-.956 0-1.321s1.024-.365 1.414 0z"/>
    </symbol>
    <symbol id="icon-envelope" viewBox="0 0 32 32">
      <path d="M29 4H3C1.346 4 0 5.346 0 7v18c0 1.654 1.346 3 3 3h26c1.654 0 3-1.346 3-3V7c0-1.654-1.346-3-3-3zm0 2c.136 0 .265.028.383.077L16 17.676 2.617 6.077A.996.996 0 0 1 3 6h26zm0 20H3a1 1 0 0 1-1-1V8.19l13.345 11.565a.998.998 0 0 0 1.31 0L30 8.19V25a1 1 0 0 1-1 1z"/>
    </symbol>
    <symbol id="icon-person-black-18dp-1" viewBox="0 0 32 32">
     <path d="M16 16c2.947 0 5.333-2.387 5.333-5.333s-2.387-5.333-5.333-5.333c-2.947 0-5.333 2.387-5.333 5.333s2.387 5.333 5.333 5.333zM16 18.667c-3.56 0-10.667 1.787-10.667 5.333v1.333c0 0.733 0.6 1.333 1.333 1.333h18.667c0.733 0 1.333-0.6 1.333-1.333v-1.333c0-3.547-7.107-5.333-10.667-5.333z"></path>
    </symbol>
    <symbol id="icon-phone-black-18dp-1" viewBox="0 0 32 32">
     <path d="M24.882 19.773l-3.268-0.373c-0.785-0.090-1.557 0.18-2.11 0.733l-2.367 2.367c-3.641-1.853-6.626-4.825-8.478-8.478l2.38-2.38c0.553-0.553 0.823-1.325 0.733-2.11l-0.373-3.242c-0.154-1.299-1.248-2.277-2.56-2.277h-2.226c-1.454 0-2.663 1.209-2.573 2.663 0.682 10.987 9.469 19.761 20.443 20.443 1.454 0.090 2.663-1.119 2.663-2.573v-2.226c0.013-1.3-0.965-2.393-2.264-2.547z"></path>
    </symbol>
    <symbol id="icon-email-black-18dp-1" viewBox="0 0 32 32">
     <path d="M26.667 5.333h-21.333c-1.467 0-2.653 1.2-2.653 2.667l-0.013 16c0 1.467 1.2 2.667 2.667 2.667h21.333c1.467 0 2.667-1.2 2.667-2.667v-16c0-1.467-1.2-2.667-2.667-2.667zM26.133 11l-9.427 5.893c-0.427 0.267-0.987 0.267-1.413 0l-9.427-5.893c-0.333-0.213-0.533-0.573-0.533-0.96 0-0.893 0.973-1.427 1.733-0.96l8.933 5.587 8.933-5.587c0.76-0.467 1.733 0.067 1.733 0.96 0 0.387-0.2 0.747-0.533 0.96z"></path>
    </symbol>
    <symbol id="icon-icon-check-1" viewBox="0 0 42 32">
      <path fill="#fff" style="fill: var(--color1, #fff); stroke: var(--color1, #fff)" stroke="#fff" stroke-linejoin="miter" stroke-linecap="butt" stroke-miterlimit="4" stroke-width="0.64" d="M6.263 15.205l-0.22-0.21-3.307 3.132 11.651 11.114 24.477-23.351-3.285-3.134-21.192 20.197-8.124-7.75z"></path>
    </symbol>
    <symbol id="icon-icon-send" viewBox="0 0 32 32">
     <path fill="#fff" style="fill: var(--color1, #fff)" d="M32 0l-32 18 10.227 3.788 15.773-14.788-11.998 16.186 0.010 0.004-0.012-0.004v8.814l5.735-6.691 7.265 2.691 5-28z"></path>
    </symbol>
  </defs><svg xmlns="http://www.w3.org/2000/svg" width="32" height="32">
  <path d="m26.667 7.303-1.97-1.97-7.808 7.808-7.808-7.808-1.97 1.97 7.808 7.808-7.808 7.808 1.97 1.97 7.808-7.808 7.808 7.808 1.97-1.97-7.808-7.808 7.808-7.808z"/>
</svg>
<svg aria-hidden="true" style="position:absolute;width:0;height:0;overflow:hidden" xmlns="http://www.w3.org/2000/svg"><defs><symbol id="icon-close-black-18dp-2-1" viewBox="0 0 32 32"><path d="m26.667 7.303-1.97-1.97-7.808 7.808-7.808-7.808-1.97 1.97 7.808 7.808-7.808 7.808 1.97 1.97 7.808-7.808 7.808 7.808 1.97-1.97-7.808-7.808 7.808-7.808z"/></symbol></defs></svg>

  </defs>
</svg>
